<?xml version="1.0" standalone="no"?>
<!DOCTYPE svg PUBLIC "-//W3C//DTD SVG 1.1//EN" "http://www.w3.org/Graphics/SVG/1.1/DTD/svg11.dtd" >
<svg xmlns="http://www.w3.org/2000/svg" xmlns:xlink="http://www.w3.org/1999/xlink" version="1.1">
<metadata>
Created by FontForge 20170731 at Tue Nov 10 23:27:19 2020
 By Aleksey,,,
Copyright: (c) Virgiawan Listanto. 2020. All Rights Reserved
</metadata>
<defs>
<font id="PlayfulWorldRegular" horiz-adv-x="280" >
  <font-face 
    font-family="Playful World"
    font-weight="400"
    font-stretch="normal"
    units-per-em="1000"
    panose-1="0 0 0 0 0 0 0 0 0 0"
    ascent="800"
    descent="-200"
    x-height="560.5"
    cap-height="690"
    bbox="-11 -166 548.552 857"
    underline-thickness="50"
    underline-position="-200"
    unicode-range="U+000A-2212"
  />
<missing-glyph horiz-adv-x="527" 
d="M50 700h427v-700h-427v700zM78 680l185 -309l186 309h-371zM251 350l-180 300v-601zM264 329l-185 -308h370zM276 350l181 -303v605z" />
    <glyph glyph-name=".notdef" horiz-adv-x="527" 
d="M50 700h427v-700h-427v700zM78 680l185 -309l186 309h-371zM251 350l-180 300v-601zM264 329l-185 -308h370zM276 350l181 -303v605z" />
    <glyph glyph-name=".null" horiz-adv-x="0" 
 />
    <glyph glyph-name=".null" horiz-adv-x="0" 
 />
    <glyph glyph-name="nonmarkingreturn" horiz-adv-x="333" 
 />
    <glyph glyph-name="controlLF" unicode="&#xa;" horiz-adv-x="0" 
 />
    <glyph glyph-name="controlCR" unicode="&#xd;" horiz-adv-x="0" 
 />
    <glyph glyph-name="space" unicode=" " horiz-adv-x="193" 
 />
    <glyph glyph-name="exclam" unicode="!" horiz-adv-x="169" 
d="M91 79q11 0 19 -11t8 -26t-8 -25.5t-19 -10.5t-19 10.5t-8 25.5q0 8 2 14.5t6 11.5t9 8t10 3zM91 99q-11 0 -19 7.5t-9 18.5q-21 509 -10 555q2 7 7 12.5t12 7.5t15 0q11 -2 17 -12t3 -21q-8 -43 12 -540q0 -11 -7.5 -19.5t-19.5 -8.5h-1z" />
    <glyph glyph-name="quotedbl" unicode="&#x22;" horiz-adv-x="222" 
d="M85 728q7 0 13.5 -4t10 -10.5t3.5 -14.5l-6 -151q-1 -6 -3 -11t-6 -8.5t-9 -5.5t-10 -2h-1q-12 0 -19.5 8.5t-7.5 20.5l6 151q0 12 8.5 20t20.5 7zM145 728q5 0 10 -2t9 -6t6 -9t2 -11l-3 -161q0 -12 -8 -20t-20 -8q-12 1 -20 9t-7 20l2 161q0 11 8.5 19t19.5 8h1z" />
    <glyph glyph-name="numbersign" unicode="#" horiz-adv-x="498" 
d="M420 474q11 0 19.5 -8t8.5 -19.5t-8.5 -19.5t-19.5 -8h-89l-11 -132h64q12 0 20 -8t8 -19.5t-8 -19.5t-20 -8h-69l-13 -138q0 -5 -2.5 -10t-6 -8t-8.5 -5t-10 -2h-3q-11 1 -18.5 9.5t-6.5 20.5l12 133h-56l-12 -138q-1 -11 -9 -18t-19 -7h-2q-12 1 -19 9.5t-6 20.5
l11 133h-49q-12 0 -20 8t-8 19.5t8 19.5t20 8h54l12 132h-86q-12 0 -20 8t-8 19.5t8 19.5t20 8h91l12 144q1 5 3.5 10t6.5 8.5t9.5 5t11.5 1.5q11 -1 18.5 -10t6.5 -20l-12 -139h55l13 144q1 11 9.5 18.5t20 6.5t19 -10t6.5 -20l-12 -139h84zM264 287l11 132h-55l-12 -132
h56z" />
    <glyph glyph-name="dollar" unicode="$" horiz-adv-x="214" 
d="M129 345q21 -28 29 -60t4.5 -57.5t-15.5 -44.5q-10 -17 -24 -24v-104q0 -6 -5 -11t-11.5 -5t-11 5t-4.5 11v102q-30 12 -41 66q-1 6 3 12t10.5 7.5t12.5 -2.5t7 -11q8 -38 21 -41q7 -1 15 12q9 14 11.5 33.5t-4.5 44.5t-24 48q-23 31 -32 62.5t-6.5 53t12.5 37.5
q7 9 16 15q-1 3 -1 5v161q0 7 4.5 11.5t11 4.5t11.5 -4.5t5 -11.5v-160q30 -7 36 -53q0 -3 -1 -6.5t-3 -5.5t-4.5 -4t-6.5 -2q-6 -1 -11.5 3t-6.5 11q-3 23 -11 25q-5 1 -11 -8t-8 -23.5t6 -39.5t27 -52z" />
    <glyph glyph-name="percent" unicode="%" horiz-adv-x="463" 
d="M159 394q-12 -50 -26 -72t-34 -22q-34 0 -44 61q-5 37 -5 93q0 85 11 151q7 44 20.5 70t38.5 26q12 0 20 -8t8 -20q0 -20 -19 -26q-1 -2 -2 -5q30 -4 41 -41q8 -25 8 -65q0 -68 -17 -142zM114 587q-11 -82 -7 -173q10 50 13 100.5t-6 72.5zM368 669q11 -5 15 -15.5
t0 -21.5l-245 -568q-7 -17 -25 -17q-6 0 -11 2q-11 5 -15 15.5t0 21.5l244 568q5 11 15.5 15.5t21.5 -0.5zM357 356q56 0 56 -127q0 -67 -15 -119q-22 -75 -69 -75q-27 0 -43 28q-26 50 -16.5 167.5t40.5 169.5q20 31 48 31q12 -1 19.5 -9.5t7.5 -19.5q-1 -10 -7.5 -17.5
t-16.5 -9.5q-5 -5 -11 -20q4 1 7 1zM349 146q9 52 7.5 96t-8.5 60q-6 2 -11 7q-9 -42 -13 -89q-6 -87 8 -124q10 15 17 50z" />
    <glyph glyph-name="ampersand" unicode="&#x26;" horiz-adv-x="439" 
d="M362 69q11 0 19 -8.5t8 -20t-8 -19.5t-19 -8q-43 0 -94 71q-13 -20 -27 -35q-36 -36 -72 -36q-32 0 -61 21.5t-45 56.5q-5 12 -8.5 26t-4 37t5 47t22.5 55.5t44 61.5q10 11 19 24q-66 196 -22 265q26 39 59 36q35 -4 53 -51q11 -29 13.5 -69.5t-7.5 -91.5t-34 -95
q17 -48 39 -95q10 -21 20 -40q13 39 12 66q0 11 8 19.5t19.5 9t19.5 -7.5t9 -20q1 -56 -32 -129q22 -34 39 -51.5t25 -18.5zM166 577q-23 -36 10 -159q18 60 11 117q-4 34 -15 50q-3 -3 -6 -8zM201 88q18 18 34 48q-7 11 -14 24q-31 56 -57 121h-1q-39 -44 -52 -87.5
t3 -79.5q10 -21 25.5 -33t29.5 -12q13 0 32 19z" />
    <glyph glyph-name="quotesingle" unicode="'" horiz-adv-x="162" 
d="M85 728q7 0 13.5 -4t10 -10.5t3.5 -14.5l-6 -155q-1 -12 -9 -19.5t-19 -7.5h-1q-12 0 -19.5 8.5t-7.5 20.5l6 155q0 12 8.5 20t20.5 7z" />
    <glyph glyph-name="parenleft" unicode="(" horiz-adv-x="268" 
d="M191 57q11 0 19 -8.5t8 -20t-8 -19.5t-19 -8q-77 0 -113 107q-28 82 -28 211q0 41 3.5 85.5t10 91t18.5 88t27 74.5t36 52t46 19q11 0 19 -8t8 -19.5t-8 -20t-19 -8.5q-5 0 -12.5 -7t-19.5 -32t-23 -63q-30 -112 -30 -252q0 -120 24 -193q24 -69 61 -69z" />
    <glyph glyph-name="parenright" unicode=")" horiz-adv-x="262" 
d="M78 719q35 0 62 -39t42 -100.5t22.5 -127t7.5 -129.5q0 -129 -26 -213q-35 -109 -108 -109q-12 0 -20 8t-8 19.5t8 20t20 8.5q32 0 55 70q23 75 23 196q0 93 -14 175t-32 123.5t-32 41.5q-12 0 -20 8.5t-8 20t8 19.5t20 8z" />
    <glyph glyph-name="asterisk" unicode="*" horiz-adv-x="361" 
d="M295 581q11 -6 14.5 -17t-2.5 -21q-7 -15 -24 -15q-7 0 -13 3l-63 33l6 -61q1 -11 -6 -20t-19 -10h-3q-7 0 -13 3t-10 9t-4 13l-7 65l-38 -29q-8 -6 -17 -6q-14 0 -22 11q-7 9 -5.5 20.5t10.5 18.5l44 34l-60 38q-10 6 -12.5 17t3.5 21t17.5 12.5t21.5 -3.5l52 -33v31
q0 12 8.5 20t20 8t19.5 -8t8 -20v-43l36 26q9 6 20.5 4.5t18 -11t4.5 -21t-11 -17.5l-31 -23z" />
    <glyph glyph-name="plus" unicode="+" horiz-adv-x="410" 
d="M332 367q12 0 20 -8t8 -19.5t-8 -20t-20 -8.5h-97v-91q0 -12 -8 -20t-19.5 -8t-20 8t-8.5 20v91h-101q-12 0 -20 8.5t-8 20t8 19.5t20 8h101v91q0 12 8.5 20t20 8t19.5 -8t8 -20v-91h97z" />
    <glyph glyph-name="comma" unicode="," horiz-adv-x="154" 
d="M104 106v-5q0 -8 -2 -18.5t-10.5 -30.5t-19.5 -23q13 17 3 41q-7 1 -12.5 6t-9 13t-3.5 17q0 16 8 26.5t19 10.5t19 -10.5t8 -26.5z" />
    <glyph glyph-name="hyphen" unicode="-" horiz-adv-x="402" 
d="M324 367q12 0 20 -8t8 -19.5t-8 -20t-20 -8.5h-246q-12 0 -20 8.5t-8 20t8 19.5t20 8h246z" />
    <glyph glyph-name="period" unicode="." horiz-adv-x="154" 
d="M77 143q11 0 19 -10.5t8 -26.5q0 -7 -2 -13.5t-5.5 -11.5t-8.5 -8t-11 -3q-11 0 -19 10.5t-8 25.5q0 8 2 14.5t6 11.5t9 8t10 3z" />
    <glyph glyph-name="slash" unicode="/" horiz-adv-x="386" 
d="M318 717q7 -2 12 -8t6 -13t-1 -14l-231 -662q-6 -19 -26 -19q-5 0 -9 2q-11 3 -16 13.5t-1 21.5l230 662q4 11 14.5 16t21.5 1z" />
    <glyph glyph-name="zero" unicode="0" horiz-adv-x="317" 
d="M270 575q16 -56 16 -147q0 -58 -7.5 -126t-22.5 -138.5t-43.5 -116.5t-65.5 -46q-27 0 -47.5 23t-32 62t-19.5 78t-11 84.5t-4 68t-1 39.5q0 136 27 226q35 119 109 119q11 0 19.5 -8t8.5 -19.5t-8.5 -20t-19.5 -8.5q-23 0 -42 -41t-29 -110q-20 -139 1 -288
q4 -33 10.5 -60t12 -42.5t11 -26.5t9.5 -15.5t6 -4.5t5 2.5t8.5 10.5t11.5 20t13.5 33t14.5 47q30 121 30 258q0 84 -13 132q-3 9 -5.5 16t-5 11t-4.5 6.5t-3 3.5t-2 1q-11 0 -19.5 8t-8.5 19.5t8.5 19.5t19.5 8q52 0 73 -78z" />
    <glyph glyph-name="one" unicode="1" horiz-adv-x="174" 
d="M128.5 697.5q15.5 -8.5 14.5 -26.5q-12 -143 -21 -278t-13 -233.5t1 -118.5q4 -10 1 -20t-12 -16q-7 -4 -15 -4q-15 0 -23 13q-5 8 -7.5 23t-0.5 97t11 231q8 114 18 250l-12 -9q-9 -7 -20.5 -5.5t-18 11t-5 21t10.5 18.5l61 45q15 10 30.5 1.5z" />
    <glyph glyph-name="two" unicode="2" horiz-adv-x="297" 
d="M262.5 47.5q7.5 -8.5 7.5 -20t-9 -18.5q-25 -23 -80 -23q-50 0 -110 16q-13 3 -18.5 15t-0.5 23q56 123 103 261q23 68 37 123t18 87t3 55t-4 32t-7 13q-8 11 -31 6q-11 -3 -20.5 3.5t-12 18t3.5 21t18 11.5q56 12 86 -25q11 -14 17 -35t6.5 -60.5t-15 -108t-47.5 -160.5
q-37 -111 -90 -233q88 -17 106 0q9 8 20.5 7.5t19 -9z" />
    <glyph glyph-name="three" unicode="3" horiz-adv-x="319" 
d="M256 364q58 -88 25 -220q-10 -39 -25 -68t-32 -43.5t-30 -21t-27 -8.5q-7 -1 -14 -1q-29 0 -55.5 17t-44.5 47q-16 25 -23 57t1 73t34 77q6 10 17.5 11.5t21 -5t11.5 -18t-5 -20.5q-19 -26 -24.5 -54.5t-1 -51t15.5 -40.5q8 -13 18 -22t20.5 -12.5t20.5 -2.5
q21 3 38.5 29t29.5 71q27 108 -17 176q-13 19 -31 34.5t-33.5 24t-32.5 15t-23 8l-10 2.5q-17 3 -22 19.5t8 28.5q52 48 93.5 95t51.5 68q-17 5 -60 2t-87 -12q-12 -2 -21.5 4t-11.5 17.5t4 21t18 12.5q164 33 205 -8q12 -12 12 -30q-1 -50 -132 -178q78 -32 118 -94z" />
    <glyph glyph-name="four" unicode="4" horiz-adv-x="386" 
d="M350 659q-19 -569 -12 -621q6 -20 -12 -32q-7 -4 -15 -4q-15 0 -23 13q-4 6 -5.5 20t-1.5 89t4 227q1 23 1 48h-208q-15 0 -23 12t-3 25l93 247q4 11 14.5 15.5t21 0.5t15.5 -14.5t1 -21.5l-79 -209h170q3 131 6 207q0 7 4 13.5t10.5 10t14.5 3.5q11 -1 19 -9.5t8 -19.5z
" />
    <glyph glyph-name="five" unicode="5" horiz-adv-x="303" 
d="M230 607q-13 14 -41 19.5t-52.5 4t-49.5 -6.5l-6 -163q64 9 109 -21q65 -43 73 -152q5 -85 -14 -150t-61 -102q-42 -36 -93 -36q-12 0 -25 3q-11 2 -17.5 11.5t-4 21t12 17.5t20.5 4q37 -7 70 21q66 58 56 206q-5 82 -47 109q-18 12 -44.5 13.5t-37 -1t-17.5 -5.5
q-14 -4 -26 4.5t-11 23.5l8 219q1 21 20 26q15 4 34.5 7t56 6t72 -7.5t56.5 -34.5q8 -8 7.5 -19.5t-9 -19.5t-20 -7.5t-19.5 9.5z" />
    <glyph glyph-name="six" unicode="6" horiz-adv-x="329" 
d="M133 454q54 0 94.5 -36.5t59 -91.5t18.5 -119q0 -81 -31 -137q-39 -68 -108 -68q-72 0 -108 100q-28 80 -28 198q0 103 20.5 192.5t64.5 149t103 59.5q11 0 19 -8t8 -19.5t-8 -20t-19 -8.5q-39 0 -70 -52t-46.5 -130t-15.5 -163q0 -109 25 -179q23 -63 55 -63q37 0 60 40
q24 43 24 109q0 76 -31.5 134t-85.5 58q-12 0 -20 8t-8 19.5t8 19.5t20 8z" />
    <glyph glyph-name="seven" unicode="7" horiz-adv-x="285" 
d="M244 439q11 0 19.5 -8.5t8.5 -20t-8.5 -19.5t-19.5 -8h-46q-20 -75 -51 -187q-43 -156 -45 -169q-1 -11 -9 -19t-19 -8q-12 0 -20 8t-8 20q0 14 47 183q31 109 48 172h-64q-12 0 -20 8t-8 19.5t8 20t20 8.5h78q42 159 40 185q-8 22 -137 21h-13q-12 0 -20 8.5t-8 20
t8 19.5t20 8h13h44t40 -2t39 -6t29.5 -10.5t25 -17.5t13.5 -26q8 -28 -36 -200h31z" />
    <glyph glyph-name="eight" unicode="8" horiz-adv-x="299" 
d="M145 432q9 -28 28 -82t28 -81t21 -69.5t14.5 -67.5t-1 -52t-16.5 -45q-24 -35 -78 -35q-57 0 -87 74q-20 49 -23.5 117.5t10.5 135.5t45 106q-16 50 -23.5 87.5t-5.5 72.5t17 57q26 36 80 36q85 0 112 -52q8 -16 9.5 -36.5t-2 -39.5t-11 -40.5t-15.5 -37.5t-17.5 -32.5
t-14.5 -24t-9 -12.5q-6 -10 -17.5 -12t-21 5t-11.5 18t5 21q30 42 49 91.5t7 73.5q-12 22 -63 22q-26 0 -35 -12q-23 -34 24 -180zM174 67q6 9 8 25t-2.5 39t-9 43.5t-15 53t-16.5 51t-18 52.5q-8 22 -12 32q-22 -55 -23 -136t20 -132q16 -39 35 -39q25 0 33 11z" />
    <glyph glyph-name="nine" unicode="9" horiz-adv-x="371" 
d="M302 693q14 -13 22.5 -52t10.5 -80t3.5 -79t-0.5 -51q-5 -230 -61 -345q-42 -85 -108 -85h-12q-11 2 -18 11t-5.5 20.5t10.5 18.5t20 6q30 -4 54 37q25 40 40.5 108.5t20 141t4 138.5t-6.5 114q-13 -29 -25 -51.5t-31 -50.5t-37.5 -46t-44 -29.5t-52 -9t-45 21
t-26.5 49.5q-13 54 10 121.5t71 98.5q71 44 151 -20l4 -4q13 25 32 25q11 0 19 -8zM92 465q16 -2 34 9.5t32 28t29 42t24 44t19 41.5q-10 0 -18 6q-31 25 -57 25q-15 0 -29 -9q-32 -20 -49 -70.5t-7 -88.5q6 -27 22 -28z" />
    <glyph glyph-name="colon" unicode=":" horiz-adv-x="154" 
d="M77 143q11 0 19 -10.5t8 -26.5q0 -7 -2 -13.5t-5.5 -11.5t-8.5 -8t-11 -3q-11 0 -19 10.5t-8 25.5q0 8 2 14.5t6 11.5t9 8t10 3zM77 376q-11 0 -19 11t-8 26q0 10 3.5 18t10 13t13.5 5q11 0 19 -10.5t8 -25.5q0 -10 -3.5 -18.5t-9.5 -13.5t-14 -5z" />
    <glyph glyph-name="semicolon" unicode=";" horiz-adv-x="154" 
d="M77 376q-11 0 -19 11t-8 26q0 10 3.5 18t10 13t13.5 5q11 0 19 -10.5t8 -25.5q0 -10 -3.5 -18.5t-9.5 -13.5t-14 -5zM77 143q11 0 19 -10.5t8 -26.5v-5q0 -8 -2 -18.5t-10.5 -30.5t-19.5 -23q13 17 3 41q-7 1 -12.5 6t-9 13t-3.5 17q0 8 2 14.5t6 11.5t9 8t10 3z" />
    <glyph glyph-name="less" unicode="&#x3c;" horiz-adv-x="343" 
d="M285.5 516.5q7.5 -8.5 7 -20t-9.5 -19.5l-163 -144l152 -138q8 -8 8.5 -19.5t-7.5 -20.5t-20 -9q-11 0 -19 7l-175 160q-9 8 -9 20.5t9 20.5l187 165q9 8 20.5 7t19 -9.5z" />
    <glyph glyph-name="equal" unicode="=" horiz-adv-x="402" 
d="M78 399q-12 0 -20 8t-8 19.5t8 19.5t20 8h246q12 0 20 -8t8 -19.5t-8 -19.5t-20 -8h-246zM324 307q12 0 20 -8t8 -19.5t-8 -19.5t-20 -8h-246q-12 0 -20 8t-8 19.5t8 19.5t20 8h246z" />
    <glyph glyph-name="greater" unicode="&#x3e;" horiz-adv-x="335" 
d="M276 357q9 -9 9 -21t-9 -20l-179 -163q-8 -7 -19 -7q-13 0 -21 9t-7 20.5t9 19.5l156 141l-156 142q-8 7 -9 18.5t7 20t19.5 9.5t20.5 -7z" />
    <glyph glyph-name="question" unicode="?" horiz-adv-x="361" 
d="M170 79q11 0 19 -11t8 -26t-8 -25.5t-19 -10.5t-19 10.5t-8 25.5t8 26t19 11zM281 626q15 -22 23 -45.5t6.5 -50t-4.5 -47.5t-15.5 -52t-21 -48.5t-24.5 -51.5q-21 -42 -31.5 -65.5t-21.5 -59.5t-12 -63q0 -12 -8 -20t-19 -8h-1q-11 0 -19 8.5t-8 19.5q0 34 12 74.5
t23.5 66.5t34.5 72q18 37 26.5 55.5t20 49t13 49.5t-2.5 42t-17 41q-40 57 -82 33q-24 -14 -38 -42t-9 -38.5t1 -21t-14.5 -15.5t-21 -1t-15.5 14q-15 33 6.5 80.5t62.5 71.5q40 23 81.5 10.5t74.5 -58.5z" />
    <glyph glyph-name="at" unicode="@" horiz-adv-x="502" 
d="M295 627q75 -4 117.5 -70.5t38.5 -176.5q0 -34 -6.5 -69.5t-17.5 -69.5t-30 -55.5t-42 -21.5q-28 0 -47 20q-22 25 -24 82q-34 -37 -70 -32q-8 2 -16.5 6.5t-20 16t-18 37t-5.5 60.5q3 68 23.5 111t54.5 50q53 12 92 -64q7 -12 0 -25q20 -5 21 -25q1 -17 -2 -63
q-8 -101 6 -116q2 -2 4 -2q21 14 36 95t-1 153q-21 100 -96 104q-93 5 -143 -75q-29 -45 -38.5 -108t-1.5 -121t30 -97q26 -47 59 -47q12 0 20 -8t8 -19.5t-8 -19.5t-20 -8q-66 0 -108 75q-26 47 -36 114.5t2 141t46 127.5q67 107 193 100zM290 406q1 3 3 6q-12 3 -18 14
q-5 8 -9 14.5t-7.5 10.5t-6.5 6t-5 3t-3 1q-5 -1 -11.5 -11t-13.5 -36t-9 -62q-1 -21 2 -36.5t5.5 -20.5t4.5 -6q5 -1 15.5 8.5t26 38t26.5 70.5z" />
    <glyph glyph-name="A" unicode="A" horiz-adv-x="302" 
d="M198 680q30 -32 48 -122.5t21.5 -208t3.5 -189.5t-2 -133q-1 -12 -9.5 -19.5t-20 -7.5t-19 8.5t-7.5 20.5q7 192 -4 365h-114q-14 -173 -9 -365q0 -8 -3.5 -14.5t-10 -10.5t-13.5 -4h-1q-11 0 -19.5 8t-8.5 19q-1 45 -1 96.5t3 146t10.5 170t24.5 145t42 95.5
q20 20 44.5 20t44.5 -20zM100 449h104q-15 160 -47 192q-2 3 -3.5 3t-4.5 -3q-32 -33 -49 -192z" />
    <glyph glyph-name="B" unicode="B" horiz-adv-x="301" 
d="M239 401q47 -47 47 -125q0 -59 -26.5 -123t-71 -108.5t-89.5 -44.5q-18 0 -30 17q-23 32 -31.5 177.5t-2 293t21.5 193.5q6 19 27 19q102 0 142 -72q19 -35 17 -78t-26 -81q-12 -20 -29 -34q30 -13 51 -34zM105 643q-12 -58 -15 -190h2h1q50 2 77 46q15 24 17 52t-10 50
q-20 36 -72 42zM110 58q39 12 79.5 80t40.5 138q0 55 -31 85q-34 34 -105 37h-5q-1 -114 5 -211.5t16 -128.5z" />
    <glyph glyph-name="C" unicode="C" horiz-adv-x="243" 
d="M215 56q11 0 19.5 -8.5t8.5 -20t-8.5 -19.5t-19.5 -8q-98 0 -151 113q-44 93 -44 228q0 67 12 129.5t35 114.5t61.5 83.5t86.5 31.5q11 0 19.5 -8t8.5 -19.5t-8.5 -20t-19.5 -8.5q-42 0 -74.5 -45t-48.5 -113.5t-16 -144.5q0 -122 38 -203.5t101 -81.5z" />
    <glyph glyph-name="D" unicode="D" horiz-adv-x="326" 
d="M260 590q46 -88 46 -223q0 -92 -20.5 -174t-63.5 -137.5t-100 -55.5q-34 0 -54 48q-21 50 -30 146t-8 198q2 253 49 300q8 8 20 8q106 0 161 -110zM127 56q32 3 60.5 46t45.5 114t17 151q0 121 -39 198q-36 71 -98 78q-16 -36 -23.5 -146.5t0.5 -252.5q4 -59 11.5 -103
t13.5 -61t12 -24z" />
    <glyph glyph-name="E" unicode="E" horiz-adv-x="306" 
d="M274 56q11 0 19 -8.5t8 -20t-8 -19.5t-19 -8h-152q-34 0 -54 48q-21 50 -30 146t-8 198v25v5t1 6q5 221 48 264q8 8 20 8h151q11 0 19.5 -8t8.5 -19.5t-8.5 -20t-19.5 -8.5h-137q-20 -46 -26 -195h163q11 0 19.5 -8t8.5 -19.5t-8.5 -19.5t-19.5 -8h-164q-1 -76 4 -150
q3 -45 8 -81.5t10.5 -57.5t10 -33t8.5 -16h147z" />
    <glyph glyph-name="F" unicode="F" 
d="M250 449q7 0 13.5 -3.5t10.5 -10t4 -13.5q0 -12 -8.5 -20t-19.5 -8h-164q-1 -76 4 -150q3 -46 8 -82.5t10.5 -57.5t10 -32.5t8.5 -16.5q10 -1 16.5 -9t6.5 -18q0 -12 -8 -20t-20 -8q-34 0 -54 48q-21 50 -30 146t-8 198v25v5t1 6q5 221 48 264q8 8 20 8h151q11 0 19.5 -8
t8.5 -19.5t-8.5 -20t-19.5 -8.5h-137q-20 -46 -26 -195h163z" />
    <glyph glyph-name="G" unicode="G" horiz-adv-x="368" 
d="M341 453q11 0 19 -8t8 -19.5t-8 -19.5t-19 -8h-50q3 -40 3 -81t-4.5 -97.5t-20 -106t-40.5 -77.5q-33 -36 -79 -36q-34 0 -59.5 25t-40 67t-21.5 91t-7 104q0 155 46 270q57 143 161 143q12 0 20 -8t8 -19.5t-8 -20t-20 -8.5q-66 0 -109 -108q-42 -105 -42 -249
q0 -102 22 -166.5t50 -64.5q21 0 38 17q24 28 37 91.5t12.5 123t-2.5 110.5h-54q-11 0 -19 8t-8 19.5t8 19.5t19 8h160z" />
    <glyph glyph-name="H" unicode="H" horiz-adv-x="344" 
d="M305 426q0 -5 -1 -9q1 -166 1 -389q0 -12 -8 -20t-19.5 -8t-19.5 8t-8 20q0 209 -2 370h-156q-5 -315 11 -357q6 -10 3 -20.5t-13 -16.5q-7 -4 -14 -4q-16 0 -24 14q-25 41 -18 401q-2 5 -2 11t3 11q4 200 14 241q2 11 12 17.5t21 4t17 -12.5t4 -21q-8 -38 -13 -213h155
q-2 182 -6 216q-1 12 6 21t19 10q7 1 14 -2t11 -9t5 -14q5 -38 7 -240q1 -5 1 -9z" />
    <glyph glyph-name="I" unicode="I" horiz-adv-x="136" 
d="M86 675q27 -61 3 -648q-1 -12 -9 -19.5t-19 -7.5h-1q-12 0 -19.5 8.5t-7.5 20.5q9 224 10.5 404t-8.5 220q-4 11 0 21.5t15 15t21.5 0.5t14.5 -15z" />
    <glyph glyph-name="J" unicode="J" horiz-adv-x="296" 
d="M224 684q31 -70 40.5 -204t-6 -262t-49.5 -180q-24 -38 -58 -38q-67 0 -103 76q-24 52 -30.5 132t3.5 146t29 89q7 9 18.5 10t20.5 -6t10 -18.5t-6 -20.5q-11 -13 -18 -66.5t-2.5 -125t26.5 -117.5q20 -43 52 -43q5 1 14 17q29 51 41 168.5t3 238t-36 181.5
q-5 10 -0.5 21t15 15.5t21 0.5t15.5 -14z" />
    <glyph glyph-name="K" unicode="K" horiz-adv-x="338" 
d="M113 430q25 -15 49 -34.5t56.5 -56.5t55.5 -79.5t38.5 -106t13.5 -134.5q0 -7 -3.5 -13.5t-10 -10t-13.5 -3.5h-1q-12 0 -20 8.5t-7 20.5q1 61 -11.5 115.5t-31.5 91.5t-45.5 69t-47.5 49.5t-43 31.5q-2 -303 10 -341q4 -11 -1.5 -21.5t-15.5 -13.5q-5 -2 -9 -2
q-20 0 -27 19q-13 46 -13 299t12 350q2 11 11 18t20.5 5.5t18.5 -10.5t5 -20q-6 -51 -9 -165q148 179 192 201q10 5 21 1.5t16.5 -14t1.5 -21.5t-14 -16q-18 -9 -77 -74t-121 -143z" />
    <glyph glyph-name="L" unicode="L" horiz-adv-x="286" 
d="M287 100.5q7 -9.5 5.5 -21t-10.5 -18.5q-13 -9 -30.5 -21t-55.5 -28.5t-66 -16.5q-8 0 -16 2q-31 5 -48 32q-34 55 -34 323q0 267 33 333q5 10 16 13.5t21 -1.5t14 -16t-1 -21q-17 -33 -23.5 -170t-0.5 -271t22 -160q4 -6 11 -8q22 -3 59.5 15.5t64.5 39.5q9 7 20.5 5.5
t18.5 -11z" />
    <glyph glyph-name="M" unicode="M" horiz-adv-x="459" 
d="M391 683q6 -6 9.5 -11.5t10.5 -27.5t9 -58t4.5 -102.5t-1.5 -160.5q-4 -138 -15 -305q-1 -11 -9 -18.5t-19 -7.5h-2q-11 1 -18.5 9.5t-6.5 20.5q13 189 15.5 354.5t-7.5 239.5q-11 -23 -33 -88q-44 -130 -75 -181q-8 -12 -22 -13t-24 11q-14 18 -28 49.5t-21.5 54.5
t-20.5 66q-21 72 -33 98q-3 8 -7 14q-11 -86 -5 -306.5t21 -286.5q2 -7 -0.5 -14t-7.5 -12.5t-12.5 -7t-14.5 0.5t-12 7.5t-7 13.5q-20 84 -24 350q-5 282 26 317q12 13 28 11q13 -2 24 -8.5t20.5 -20t16.5 -25.5t15 -35t12.5 -37.5t13.5 -42.5q23 -79 37 -111q18 39 47 126
q14 41 21 59.5t17.5 41.5t21 32.5t24.5 11.5q18 4 32 -8z" />
    <glyph glyph-name="N" unicode="N" horiz-adv-x="358" 
d="M323.5 716q11.5 0 19.5 -8t8 -20q0 -97 -18 -203q-9 -54 -20.5 -86.5t-26.5 -48.5t-34 -16q-29 0 -48.5 37t-53.5 137q-29 89 -43 118q-17 -78 -17 -284q0 -74 2 -143.5t5.5 -111t5.5 -50.5q2 -8 1 -15t-6 -12.5t-13 -7.5q-4 -2 -8 -2q-20 0 -26 19q-8 22 -12.5 118.5
t-4.5 200.5q0 291 34 343q12 18 31 19q30 2 50 -35t54 -139q35 -104 49 -129q11 20 21 68.5t16.5 109.5t6.5 113q0 12 8 20t19.5 8z" />
    <glyph glyph-name="O" unicode="O" horiz-adv-x="329" 
d="M275 587q30 -88 30 -219q0 -68 -9 -132t-26 -117.5t-45.5 -86t-64.5 -32.5t-63 31.5t-42 83.5t-22.5 111.5t-7.5 123.5q0 135 28 229q36 121 107 121q77 0 115 -113zM160 56q33 0 61 91.5t28 220.5q0 122 -27 201q-25 75 -62 75q-14 0 -28.5 -21.5t-25.5 -58.5
q-25 -87 -25 -214q0 -126 24.5 -210t54.5 -84z" />
    <glyph glyph-name="P" unicode="P" horiz-adv-x="282" 
d="M279 545q0 -39 -16.5 -68.5t-44.5 -46t-59.5 -24.5t-65.5 -8q-5 -284 11 -365q2 -11 -4.5 -20.5t-17.5 -11.5q-3 -1 -6 -1q-6 0 -12 3t-10 8t-5 11q-16 113 -12.5 353.5t12.5 300.5q1 5 3 9t5 7t7.5 5t9.5 3q99 9 159 -45q46 -43 46 -110zM102 645q-5 -66 -8 -192
q17 1 34.5 3.5t41.5 11t39 28.5t15 49q0 43 -29 68q-33 31 -93 32z" />
    <glyph glyph-name="Q" unicode="Q" horiz-adv-x="329" 
d="M244 -8q10 -2 17 -9.5t7 -18.5t-8.5 -19.5t-19.5 -8.5q-43 0 -57 68q-12 -4 -23 -4q-36 0 -63 31.5t-42 83.5t-22.5 111.5t-7.5 123.5q0 135 28 229q36 121 107 121q77 0 115 -113q30 -87 30 -219q0 -100 -18.5 -189t-53.5 -136q5 -41 11 -51zM195 206q19 -14 26 -57
q28 93 28 219q0 122 -27 201q-25 75 -62 75q-14 0 -28.5 -21.5t-25.5 -58.5q-25 -87 -25 -214q0 -126 24.5 -210t54.5 -84q7 0 15 5q-1 8 -2 21q-6 63 -11 78q-18 4 -21 22q-2 12 4.5 21.5t18.5 10.5q17 3 31 -8z" />
    <glyph glyph-name="R" unicode="R" horiz-adv-x="296" 
d="M279 545q0 -60 -36.5 -95t-93.5 -47q106 -142 106 -375q0 -12 -8 -20t-19 -8q-6 0 -11 2t-9 6t-6 9t-2 11q0 72 -11.5 135.5t-30 107t-34 69.5t-32.5 45q-4 -273 12 -352q2 -11 -4.5 -20.5t-17.5 -11.5q-3 -1 -6 -1q-9 0 -17 6.5t-10 15.5q-16 113 -12.5 353.5
t12.5 300.5q1 10 8 16.5t17 7.5q99 9 159 -45q46 -43 46 -110zM102 645q-5 -66 -8 -192q17 1 34.5 3.5t41.5 11t39 28.5t15 49q0 43 -29 68q-33 31 -93 32z" />
    <glyph glyph-name="S" unicode="S" horiz-adv-x="255" 
d="M165 378q43 -59 59.5 -125t9.5 -118t-31 -91q-35 -55 -84 -55q-6 0 -13 1q-69 12 -94 136q-3 11 3.5 20.5t18 12t21 -4t11.5 -17.5q9 -44 23 -67t27 -25q19 -4 39 29q20 30 25 72t-9.5 96t-50.5 103q-37 50 -57 99t-23 89t3.5 71.5t21.5 54.5q17 25 41 37t48 6
q9 -2 18 -7t20.5 -16t20.5 -32.5t13 -50.5q1 -11 -6 -20.5t-18.5 -10.5t-20.5 6t-11 18q-3 27 -11.5 42t-16.5 17q-15 3 -31 -20q-11 -18 -15 -43.5t0.5 -57.5t22 -71t46.5 -78z" />
    <glyph glyph-name="T" unicode="T" horiz-adv-x="312" 
d="M295 700q12 0 20 -8t8 -19.5t-8 -20t-20 -8.5h-110q-8 -110 -10 -330t10 -274q5 -11 1.5 -21.5t-13.5 -15.5q-6 -3 -13 -3q-17 0 -25 15q-9 19 -13 101.5t-2.5 186t4.5 195.5t6 146h-113q-12 0 -20 8.5t-8 20t8 19.5t20 8h278z" />
    <glyph glyph-name="U" unicode="U" horiz-adv-x="348" 
d="M303 673q10 -33 15 -115.5t1.5 -179.5t-23.5 -191.5t-53 -140.5t-78 -46q-37 0 -64 32t-44.5 102.5t-22.5 149.5t-4.5 162.5t4 142.5t8.5 87q2 12 11 18.5t20.5 5t18.5 -11t5 -20.5q-7 -46 -10.5 -130t-1 -178.5t17 -178t41.5 -113.5q10 -12 21 -12q17 0 33 22
q37 51 53.5 180t14 244t-15.5 153q-2 6 -1.5 11.5t3 10t6.5 8.5t9 6q11 3 21.5 -2t14.5 -16z" />
    <glyph glyph-name="V" unicode="V" horiz-adv-x="331" 
d="M292 682q27 -70 16.5 -192t-38 -241.5t-63.5 -216.5q-4 -13 -16 -21t-26 -8h-2q-14 0 -25.5 9t-15.5 23q-3 10 -8 28q-10 36 -16 57t-17.5 64t-18.5 75t-16.5 77.5t-14.5 85t-9 83.5t-3.5 87t4.5 83q1 12 10 19t20.5 6t19 -10t6.5 -21q-4 -33 -4 -70.5t1.5 -71.5t6.5 -73
t10 -70.5t13.5 -70t15 -65t16 -62t15 -55t13.5 -49.5q35 103 58.5 216.5t29 210.5t-13.5 153q-4 11 0.5 21.5t15.5 14.5q5 2 10.5 2t10.5 -2.5t9 -6.5t6 -9z" />
    <glyph glyph-name="W" unicode="W" horiz-adv-x="572" 
d="M527 689q38 -51 9 -318q-11 -104 -30.5 -201.5t-43.5 -137.5q-18 -32 -43 -32h-5q-18 2 -33 16.5t-37 64.5t-45 138q-8 29 -16 61q-7 -33 -14 -61q-13 -54 -26 -93.5t-24 -62.5t-22 -37.5t-20 -19t-19 -6.5q-22 -3 -40 18q-23 28 -45 121.5t-34 199.5t-16 204.5t10 136.5
q3 11 13 16.5t21 2t16.5 -13.5t2.5 -21q-10 -31 -7 -123t16 -203q27 -214 61 -276q21 28 50 135t49 225q1 7 4.5 12t9.5 8t13 3q10 1 17.5 -5.5t9.5 -16.5q23 -119 54 -226t53 -135q14 26 31.5 101.5t30.5 186.5q15 137 14.5 214t-10.5 92q-7 9 -5 20.5t11 18t20.5 5
t18.5 -10.5z" />
    <glyph glyph-name="X" unicode="X" horiz-adv-x="399" 
d="M371 644q-3 0 -7 -1.5t-12 -8t-17 -18t-22.5 -33.5t-28.5 -52q-22 -45 -50 -112q43 -95 93 -257q30 -96 39 -109q20 -8 16 -30q-1 -6 -5 -11.5t-9.5 -8.5t-12.5 -3h-5q-8 2 -14.5 5.5t-13 13.5t-11 18.5t-11.5 28.5t-11.5 34t-14.5 45q-38 126 -68 200q-11 -28 -28 -75
q-31 -82 -48.5 -125.5t-35.5 -79.5t-32 -49.5t-30 -15.5h-3q-11 0 -19 7t-9 17.5t5 19t16 11.5q23 17 104 235q29 78 48 127q-71 148 -164 235q-9 8 -9 19.5t7.5 20t19 8.5t20.5 -7q86 -81 154 -208q46 108 86 161.5t83 53.5q11 0 19.5 -8t8.5 -20q0 -7 -4 -13.5
t-10.5 -10.5t-13.5 -4z" />
    <glyph glyph-name="Y" unicode="Y" horiz-adv-x="340" 
d="M298 665q9 -51 12 -134.5t-1 -177t-24.5 -180.5t-54.5 -130q-35 -43 -82 -43q-49 0 -81 36q-19 21 -30 54t-12.5 66.5t-1 51t1.5 30.5q2 11 11 18.5t20 5.5q8 -1 14 -5t9 -11t2 -15q-5 -36 0.5 -85t27.5 -73q15 -17 39 -17q20 0 38 22q36 46 53.5 152.5t17.5 229.5
q-4 -7 -9 -13q-37 -49 -92 -49q-47 0 -78 34q-20 22 -31.5 55.5t-14 70.5t-2 64t2.5 53q1 11 10 18.5t20.5 6.5t19 -10t6.5 -21q-8 -52 -0.5 -113t30.5 -86q15 -17 37 -17q27 0 48 28q24 31 34 85.5t5 88.5q-1 6 -2 11q-3 11 3 20.5t17 12.5t20.5 -2.5t13.5 -16.5
q1 -7 3 -15z" />
    <glyph glyph-name="Z" unicode="Z" horiz-adv-x="332" 
d="M319 438q5 -10 1.5 -21t-14.5 -16q-25 -13 -60 -18q-19 -44 -43 -95q-51 -105 -119 -224q121 -16 176 6q7 2 14 1t13 -5.5t9 -11.5q4 -11 -0.5 -21.5t-15.5 -14.5q-40 -16 -106 -16q-71 0 -140 15q-14 2 -20 15.5t1 25.5q72 120 138 255q17 35 31 68q-60 2 -113 18
q-7 2 -12 7.5t-6.5 12.5t-0.5 14q3 8 8.5 13t12 6.5t14.5 -0.5q59 -17 121 -16q24 61 31.5 109t5 63.5t-4.5 18.5q-19 21 -45.5 29t-42.5 7t-30 -4q-23 -6 -39 -16.5t-18 -20.5q-4 -11 -14 -16.5t-21 -2.5q-5 1 -9.5 5t-7 8.5t-3.5 10t1 10.5q8 27 34.5 47t64.5 29
q49 12 94.5 -1t76.5 -48q12 -12 17 -37.5t-0.5 -74t-26.5 -106.5q6 2 11 4q10 6 21 2t16 -14z" />
    <glyph glyph-name="bracketleft" unicode="[" horiz-adv-x="221" 
d="M143 45q8 0 14.5 -3.5t10 -10t3.5 -13.5q0 -12 -8 -20t-20 -8h-65q-12 0 -20 8t-8 20v713q0 11 8 19.5t20 8.5h65q12 0 20 -8.5t8 -20t-8 -19.5t-20 -8h-37v-658h37z" />
    <glyph glyph-name="backslash" unicode="\" horiz-adv-x="378" 
d="M327 38q4 -11 -1.5 -21.5t-16.5 -13.5q-4 -2 -8 -2q-20 0 -27 19l-223 662q-3 11 2 21.5t16 14t21.5 -1.5t13.5 -16z" />
    <glyph glyph-name="bracketright" unicode="]" horiz-adv-x="221" 
d="M143 759q12 0 20 -8.5t8 -19.5v-713q0 -12 -8 -20t-20 -8h-65q-12 0 -20 8t-8 19.5t8 19.5t20 8h38v658h-38q-12 0 -20 8t-8 19.5t8 20t20 8.5h65z" />
    <glyph glyph-name="asciicircum" unicode="^" horiz-adv-x="353" 
d="M301 437q4 -11 -0.5 -21.5t-15.5 -15t-21.5 0.5t-14.5 15l-73 182l-72 -182q-7 -17 -26 -17q-5 0 -10 2q-11 4 -15.5 14.5t-0.5 21.5l97 246q7 18 26 18t26 -17z" />
    <glyph glyph-name="underscore" unicode="_" horiz-adv-x="374" 
d="M297 -82q11 0 19 -8.5t8 -20t-8 -19.5t-19 -8h-219q-12 0 -20 8t-8 19.5t8 20t20 8.5h219z" />
    <glyph glyph-name="a" unicode="a" horiz-adv-x="261" 
d="M171 540q24 -26 39 -99t18 -166.5t3 -151.5t-2 -107q0 -11 -8.5 -19t-19.5 -8l-1 1q-11 0 -19 8.5t-8 19.5q5 109 0 236q-1 25 -3 48h-80q-1 -23 -3 -48q-7 -125 -3 -236q0 -8 -3.5 -14.5t-10 -10t-14.5 -4.5q-12 0 -20 8t-8 20q-3 25 -1 102t5.5 159.5t19 159
t40.5 102.5q18 17 40 17t39 -17zM96 358h69q-11 117 -33 142q-23 -24 -36 -142z" />
    <glyph glyph-name="b" unicode="b" horiz-adv-x="259" 
d="M204 314q39 -39 39 -103q0 -48 -22 -100.5t-58.5 -88.5t-73.5 -36q-17 0 -29 15q-28 39 -29 260q-1 213 19 273q6 19 26 19q85 0 119 -60q16 -29 14 -65t-21 -67q-8 -12 -18 -23q19 -9 34 -24zM98 496q-8 -45 -10 -138q33 2 53 33q11 18 12.5 38.5t-7.5 36.5
q-13 24 -48 30zM102 45q28 13 56.5 64.5t28.5 101.5q0 41 -22 63q-25 25 -78 28q-1 -197 15 -257z" />
    <glyph glyph-name="c" unicode="c" horiz-adv-x="214" 
d="M182 45q11 0 19.5 -8t8.5 -19.5t-8.5 -19.5t-19.5 -8q-40 0 -72 24t-54 69q-35 75 -35 184q0 73 16.5 137t54 108.5t90.5 44.5q11 0 19 -8t8 -19.5t-8 -19.5t-19 -8q-32 0 -56.5 -35t-36.5 -88t-12 -112q0 -97 30 -160q29 -62 75 -62z" />
    <glyph glyph-name="d" unicode="d" 
d="M222 465q37 -72 36 -180q0 -75 -16.5 -141.5t-52 -111.5t-82.5 -45q-31 0 -49 42q-18 46 -26.5 159.5t1 222.5t36.5 136q8 8 19 8q88 0 134 -90zM113 43q36 7 63 79t27 163q0 95 -31 154q-26 52 -69 59q-21 -61 -19 -226q1 -90 10 -151t19 -78z" />
    <glyph glyph-name="e" unicode="e" horiz-adv-x="264" 
d="M227 48q12 0 20 -8t8 -19.5t-8 -19.5t-20 -8h-120q-31 0 -48 42q-15 36 -23.5 121t-7.5 175v3v4q4 178 41 214q8 9 19 9h120q12 0 20 -8.5t8 -20t-8 -19.5t-20 -8h-104q-15 -39 -19 -144h123q12 0 20 -8t8 -19.5t-8 -19.5t-20 -8h-124v-28q1 -91 10 -152t19 -78h114z" />
    <glyph glyph-name="f" unicode="f" horiz-adv-x="243" 
d="M208 358q12 0 20 -8t8 -19.5t-8 -20t-20 -8.5h-124v-27q0 -63 5.5 -115t11.5 -79t13 -37q9 -2 15 -9.5t6 -17.5q0 -11 -8 -19t-20 -8q-31 0 -48 41q-15 37 -23.5 121.5t-7.5 175.5v1v1v4q4 179 41 215q8 8 19 8h120q12 0 20 -8t8 -19.5t-8 -19.5t-20 -8h-104
q-15 -39 -19 -144h123z" />
    <glyph glyph-name="g" unicode="g" horiz-adv-x="312" 
d="M281 361q6 0 11 -2t8.5 -6t6 -9t2.5 -11q0 -11 -8.5 -19t-19.5 -8h-33q3 -24 1.5 -64.5t-4.5 -80t-15.5 -79.5t-33.5 -62q-27 -30 -67 -30q-28 0 -49.5 20t-33.5 54.5t-18 74.5t-6 84q0 125 37 217q47 117 133 117q12 0 20 -8t8 -19.5t-8 -19.5t-20 -8q-48 0 -81 -83
q-33 -82 -33 -196q0 -54 8.5 -96.5t20 -62t22.5 -19.5q15 0 26 12q25 28 33.5 101t3.5 148h-38q-11 0 -19 8t-8 19.5t8 19.5t19 8h127z" />
    <glyph glyph-name="h" unicode="h" horiz-adv-x="295" 
d="M259 333q0 -3 -1 -7q1 -132 1 -309q0 -11 -8 -19t-19.5 -8t-19.5 8t-8 19q0 163 -1 289h-113q-3 -241 8 -276q5 -10 2 -20.5t-12 -16.5q-7 -3 -14 -3q-16 0 -24 13q-18 29 -16 261q0 30 1 61q-2 4 -2 8q0 5 2 10q3 156 11 193q3 11 12.5 17t21 3.5t17.5 -12t4 -21.5
q-7 -28 -10 -162h111q-2 139 -4 165q-2 12 5.5 21t19 10t20.5 -6t10 -18q3 -31 5 -191q1 -5 1 -9z" />
    <glyph glyph-name="i" unicode="i" horiz-adv-x="131" 
d="M86 542q21 -50 2 -518q-1 -11 -9 -19t-19 -8h-1q-12 1 -19.5 9.5t-7.5 19.5q7 176 8 318.5t-6 176.5q-4 10 0 20.5t15 15t21.5 0.5t15.5 -15z" />
    <glyph glyph-name="j" unicode="j" horiz-adv-x="255" 
d="M193 541q19 -42 28 -117.5t7 -152.5t-14.5 -147t-32.5 -102q-21 -32 -52 -32q-56 0 -86 63q-30 69 -27 168.5t29 129.5q7 9 18.5 10t20.5 -6t10 -18.5t-6 -20.5q-8 -11 -13.5 -54.5t-1 -99t21.5 -89.5q14 -27 33 -28q7 5 15 25t16.5 66.5t11.5 107.5q4 85 -4 160.5
t-25 113.5q-5 11 -1 21.5t14.5 15.5t21.5 0.5t16 -14.5z" />
    <glyph glyph-name="k" unicode="k" horiz-adv-x="291" 
d="M109 349q21 -13 40.5 -29t44.5 -45.5t42.5 -63.5t29.5 -84t10 -106q0 -11 -8 -19t-20 -8v0q-12 0 -20 8.5t-7 19.5q1 45 -8 85.5t-22.5 69t-32.5 53t-35 39t-33 26.5q-2 -226 8 -258q2 -8 0.5 -15t-6.5 -12.5t-12 -8.5q-4 -1 -9 -1q-20 0 -26 19q-11 37 -11 239t10 279
q1 12 10 19t20.5 5.5t18.5 -10.5t6 -21q-5 -36 -7 -114q110 132 144 149q10 5 21 1.5t16 -14t1.5 -21.5t-13.5 -16q-13 -6 -57 -55t-95 -111z" />
    <glyph glyph-name="l" unicode="l" horiz-adv-x="246" 
d="M243 103q7 -9 5.5 -20.5t-10.5 -18.5q-70 -54 -124 -54q-7 0 -14 1q-27 5 -42 29q-17 28 -24.5 142.5t-1 231.5t24.5 152q5 11 16 14.5t21.5 -1.5t14 -16t-1.5 -22q-20 -40 -20.5 -239.5t19.5 -232.5q1 -2 4 -3q10 -2 28.5 5t35.5 17t30 20q9 7 20.5 5.5t18.5 -10.5z" />
    <glyph glyph-name="m" unicode="m" horiz-adv-x="387" 
d="M325 546q6 -4 9 -9t8.5 -23t7 -47t4 -82t-0.5 -129q-4 -131 -12 -243q-1 -11 -9 -18.5t-19 -7.5q-1 0 -2 1q-11 0 -19 9t-7 20q22 315 9 450q-6 -16 -17 -50q-35 -103 -60 -144q-8 -13 -22.5 -14t-23.5 11q-26 32 -57 137q-14 48 -22 70q-7 -79 -2.5 -238t16.5 -211
q2 -7 0 -14.5t-7.5 -12.5t-13.5 -6q-11 -3 -20.5 3t-12.5 17q-16 68 -19 280q-4 227 22 256q11 12 28 10q13 -1 24.5 -10t19 -19.5t16 -31.5t12.5 -35t13 -42q15 -52 24 -76q12 28 32 88q11 34 17 49t15 33.5t18 26.5t21 11q17 3 30 -9z" />
    <glyph glyph-name="n" unicode="n" horiz-adv-x="305" 
d="M267.5 588q11.5 0 20 -8t8.5 -20q0 -77 -15 -163q-11 -65 -27.5 -94.5t-42.5 -29.5t-42.5 30.5t-43.5 111.5q-18 54 -27 77q-11 -83 -10 -249t10 -199q3 -8 1.5 -15t-6.5 -12.5t-12 -7.5q-5 -2 -9 -2q-20 0 -27 20q-13 39 -13 255q0 233 28 275q11 17 29 18q7 1 13.5 -1
t13 -7.5t11 -11t10.5 -17t10 -19.5t10 -25t9.5 -28t11.5 -33q22 -68 33 -91q11 32 20 97t9 121q0 12 8 20t19.5 8z" />
    <glyph glyph-name="o" unicode="o" horiz-adv-x="282" 
d="M234 484q24 -71 24 -176q0 -46 -6 -94t-18.5 -96t-37.5 -78t-59 -30q-30 0 -52.5 24.5t-35.5 66t-19 90t-6 103.5q0 108 22 184q30 100 91 100q65 0 97 -94zM137 65q14 0 28.5 29.5t25.5 87.5t11 126q0 96 -21 158q-19 56 -44 56q-8 0 -18 -15.5t-19 -44.5
q-20 -68 -20 -168q0 -67 9.5 -121t22.5 -81t25 -27z" />
    <glyph glyph-name="p" unicode="p" horiz-adv-x="244" 
d="M239 447q0 -41 -23.5 -69.5t-55.5 -40t-70 -12.5q-4 -220 9 -283q2 -11 -4 -21t-18 -12h-5q-10 0 -18 6t-10 16q-12 90 -9.5 282t9.5 239q1 7 4.5 12t9 8.5t11.5 3.5q82 8 131 -37q39 -36 39 -92zM97 521q-3 -51 -6 -141q11 1 21 2.5t23.5 6t23.5 11t17 19t7 28.5
q0 32 -21 51q-23 21 -65 23z" />
    <glyph glyph-name="q" unicode="q" horiz-adv-x="282" 
d="M207 65q20 -5 20 -27q0 -11 -8 -19t-20 -8q-37 0 -49 52q-7 -2 -14 -2q-24 0 -43.5 16.5t-32.5 44t-21.5 64.5t-12 76.5t-3.5 82.5q0 108 22 184q30 100 91 100q65 0 97 -94q24 -70 24 -175q0 -73 -14 -146.5t-43 -115.5q3 -24 7 -33zM136 117q3 0 6 1l-2 14q-4 45 -7 57
q-15 6 -18 22q-1 7 1.5 14t8 12t13.5 6q16 3 30 -8q11 -8 17 -26q16 67 16 151q0 96 -21 158q-19 55 -44 55q-8 0 -18 -15.5t-19 -44.5q-20 -68 -20 -168q0 -41 3.5 -78t9.5 -63.5t13.5 -46.5t15.5 -30t15 -10z" />
    <glyph glyph-name="r" unicode="r" horiz-adv-x="257" 
d="M239 463q0 -33 -15 -60t-37 -43.5t-50 -25.5q83 -115 83 -298q0 -11 -8.5 -19t-20 -8t-19.5 8t-8 19q0 167 -74 268q-3 -203 9 -262q2 -11 -4 -21t-18 -12h-5q-10 0 -18 6t-10 16q-12 90 -9.5 282t9.5 239q2 10 9 16.5t16 7.5q92 9 137 -32q33 -30 33 -81zM97 522
q-3 -51 -6 -141q33 2 62.5 23t29.5 59q0 26 -15 40q-20 19 -71 19z" />
    <glyph glyph-name="s" unicode="s" horiz-adv-x="225" 
d="M147 330q35 -48 48.5 -102t7.5 -96.5t-26 -73.5q-29 -47 -71 -47q-6 0 -12 1q-58 11 -79 112q-3 12 3.5 21.5t17.5 11.5q6 1 11.5 0t10 -4t7.5 -7.5t4 -9.5q5 -24 12.5 -40.5t13 -22t9.5 -6.5q12 -2 26 20q14 24 18 56t-7 74t-39 80q-39 53 -54.5 105t-11 88.5t21.5 61.5
q14 22 35 32t42 5q6 -1 11.5 -3.5t14 -9t15 -16t12 -25t8.5 -35.5q1 -11 -6 -20.5t-18.5 -10.5t-20.5 6t-10 18q-5 39 -19 42q-8 2 -18 -13q-10 -16 -13 -40t10 -66t46 -86z" />
    <glyph glyph-name="t" unicode="t" horiz-adv-x="265" 
d="M244 585q12 0 20 -8t8 -20t-8 -20t-20 -8h-82q-6 -92 -7.5 -259.5t7.5 -212.5q5 -11 1 -21.5t-14 -15.5q-6 -3 -12 -3q-18 0 -25 15q-10 20 -12.5 124t0.5 205t7 168h-84q-12 0 -20 8t-8 20t8 20t20 8h221z" />
    <glyph glyph-name="u" unicode="u" horiz-adv-x="298" 
d="M257 536q12 -37 15 -134.5t-13 -209.5t-50 -160q-28 -39 -67 -39q-32 0 -55 27q-30 35 -44.5 115.5t-14.5 167.5t3.5 149t6.5 85q2 12 11.5 18.5t20.5 5t18 -11t5 -20.5q-8 -53 -10 -148.5t9.5 -195t36.5 -129.5q7 -7 13 -7q10 0 21 15q29 40 42 141.5t11 192t-12 120.5
q-4 11 1 21.5t16 14t21.5 -1.5t14.5 -16z" />
    <glyph glyph-name="v" unicode="v" horiz-adv-x="283" 
d="M248 557q15 -45 15 -109t-13 -140t-31 -145.5t-38 -125.5q-5 -12 -15.5 -19.5t-23.5 -7.5h-2q-13 0 -23.5 8.5t-14.5 21.5q-1 2 -6 21q-9 29 -13.5 46t-13.5 51.5t-15 60t-13 61.5t-11 67.5t-7 66.5t-3 69.5t3 66.5q2 12 10.5 19t20 6t19 -10t6.5 -20q-17 -164 64 -447
q40 124 56.5 248.5t-3.5 191.5q-4 11 0.5 21.5t15.5 14.5q8 2 15 1t12.5 -6t8.5 -12z" />
    <glyph glyph-name="w" unicode="w" horiz-adv-x="475" 
d="M434 566q32 -42 8 -256q-22 -208 -59 -272q-16 -28 -40 -28h-4q-17 2 -30.5 16t-30.5 53.5t-36 108.5q-3 11 -6 25q-3 -13 -6 -25q-25 -100 -46.5 -137.5t-46.5 -40.5q-21 -3 -37 16q-39 47 -64 260q-25 208 -5 272q3 11 13.5 16.5t21.5 2t16.5 -13.5t1.5 -21
q-15 -49 5 -228t45 -238q17 30 38 110.5t35 165.5q1 5 3.5 9.5t6 7.5t8 4.5t9.5 1.5h1q10 0 17.5 -6.5t9.5 -15.5q16 -86 38.5 -166.5t39.5 -110.5q26 63 45 219q11 106 11 166t-7 73q-7 9 -5.5 20t11 18t21 5.5t18.5 -11.5z" />
    <glyph glyph-name="x" unicode="x" horiz-adv-x="339" 
d="M306 523q-1 0 -3 -0.5t-8 -5.5t-13 -13t-17.5 -25.5t-22.5 -41.5q-18 -36 -39 -87q34 -76 74 -203q22 -72 29 -83q18 -10 15 -30q-2 -10 -10 -16.5t-18 -6.5h-4q-21 4 -32.5 27.5t-33.5 92.5q-28 90 -49 144q-5 -16 -16 -45q-49 -130 -71.5 -173t-49.5 -46h-3
q-11 0 -19 7t-9 18q-1 10 4.5 18.5t15.5 11.5q17 16 79 183q23 60 38 98q-56 116 -128 184q-9 8 -9 19.5t7.5 19.5t19 8.5t20.5 -7.5q66 -61 118 -156q35 82 67 123t68 41q11 0 19.5 -8t8.5 -20t-8.5 -20t-19.5 -8z" />
    <glyph glyph-name="y" unicode="y" horiz-adv-x="292" 
d="M253 547q12 -59 13.5 -154.5t-15.5 -198t-53 -148.5q-29 -36 -69 -36q-41 0 -68 30q-16 18 -25 45t-10.5 54t-1 41.5t1.5 24.5q1 12 10 19t20.5 5.5t18.5 -10.5t6 -20q-3 -27 1 -65.5t20 -56.5q11 -12 27 -12q13 0 26 16q27 34 40.5 112t14.5 170q-31 -37 -74 -37
q-40 0 -67 29q-51 56 -37 197q1 12 10 19.5t20.5 6t19 -10.5t6.5 -20q-6 -39 -0.5 -87t22.5 -68q10 -10 26 -10q18 0 33 19q18 24 26 65.5t4 68.5l-2 8q-2 11 3.5 21t16.5 13q7 1 14.5 -0.5t12.5 -7t7 -12.5q1 -4 2 -10z" />
    <glyph glyph-name="z" unicode="z" horiz-adv-x="285" 
d="M269 376q5 -11 1.5 -21.5t-13.5 -16.5q-20 -10 -47 -14q-14 -34 -33 -72q-39 -80 -91 -171q89 -11 129 5q7 2 14 1t13 -5.5t9 -11.5q4 -11 -0.5 -21.5t-14.5 -14.5q-34 -13 -87 -13q-56 0 -113 12q-14 3 -19.5 16t1.5 25q54 90 107 198q12 26 23 50q-43 3 -82 15
q-11 3 -17 13t-2.5 21t13.5 16.5t21 2.5q44 -13 91 -13q17 44 23.5 74t5.5 36.5t-3 9.5q-33 36 -88 23q-17 -4 -28.5 -11.5t-12.5 -13.5q-4 -11 -14 -17t-21 -2.5t-16.5 13.5t-2.5 21q6 22 28.5 39.5t54.5 24.5q41 10 78.5 -1t63.5 -39q33 -37 -4 -144q9 3 18.5 -1t14.5 -13
z" />
    <glyph glyph-name="braceleft" unicode="{" horiz-adv-x="249" 
d="M171 729q8 0 14.5 -4t10 -10t3.5 -14q0 -11 -8 -19.5t-20 -8.5q-22 0 -31 -9q-7 -9 -7.5 -32t1.5 -41t8 -50q7 -40 9.5 -61t-0.5 -49.5t-16 -45.5q-2 -4 -5 -7q12 -17 16 -41.5t0 -58t-8 -55.5t-13 -60q-23 -102 -16 -118h1q11 0 19 -8t8 -19.5t-8 -19.5t-19 -8
q-28 0 -44 20q-12 15 -13.5 43t3 51t15.5 71q9 39 13 60t7.5 52t-2 48t-19.5 21q-10 3 -15.5 11.5t-4.5 18t8 16.5t16 9q12 1 17 7q13 18 -4 114q-7 42 -10 64.5t1 53.5t20 49q25 30 73 30z" />
    <glyph glyph-name="braceright" unicode="}" horiz-adv-x="249" 
d="M180 356q-15 -4 -20.5 -21t-2 -48t7.5 -52t13 -60q11 -48 15.5 -71.5t3 -51t-13.5 -43.5q-16 -19 -44 -19q-11 0 -19 8t-8 19.5t8 19.5t19 8h1q7 16 -16 118q-9 38 -13 60t-8 55.5t0 57.5t16 42q-3 3 -5 7q-13 17 -16 45t-0.5 49.5t9.5 61.5q6 32 8.5 50t1.5 40.5
t-8 32.5q-8 9 -31 9q-12 0 -20 8.5t-8 20t8 19.5t20 8q49 0 73 -30q16 -18 20 -49t1 -53.5t-10 -64.5q-17 -96 -4 -114q5 -6 17 -7q6 -1 11.5 -4.5t8.5 -9t4 -12.5q1 -9 -4.5 -17.5t-14.5 -11.5z" />
    <glyph glyph-name="asciitilde" unicode="~" horiz-adv-x="394" 
d="M325.5 368.5q10.5 -3.5 16 -14t1.5 -21.5q-20 -57 -57 -70q-12 -4 -24 -4q-31 0 -88 37q-45 28 -54 25q-8 -3 -15 -32q-3 -11 -13 -17t-21 -3t-17 13t-3 21q14 56 49 70q10 4 21 4t20 -2t22 -8.5t20 -11t21 -12.5q50 -32 63 -27q12 4 23 35q4 11 14.5 16t21 1.5z" />
    <glyph glyph-name="nonbreakingspace" unicode="&#xa0;" horiz-adv-x="193" 
 />
    <glyph glyph-name="exclamdown" unicode="&#xa1;" horiz-adv-x="173" 
d="M77 627q-11 0 -19 11t-8 26q0 10 3.5 18.5t10 13t14 4.5t13.5 -4.5t9.5 -13t3.5 -18.5t-3.5 -18.5t-9.5 -13.5t-14 -5zM113 554q-9 -43 10 -511q0 -12 -8 -20t-19 -9h-1q-11 0 -19.5 8t-8.5 19q-19 480 -8 525q2 8 7 13.5t12 7.5t15 0q11 -3 17 -12.5t3 -20.5z" />
    <glyph glyph-name="cent" unicode="&#xa2;" horiz-adv-x="213" 
d="M146 195q7 0 12 -5t5 -11.5t-5 -11.5t-12 -5q-12 0 -24 4v-105q0 -7 -4.5 -11.5t-11 -4.5t-11.5 4.5t-5 11.5v116q0 5 3 8q-13 14 -22 33q-21 45 -21 110q0 98 41 146q-1 3 -1 5v124q0 7 5 11.5t11.5 4.5t11 -4.5t4.5 -11.5v-106q12 4 24 4q7 0 12 -4.5t5 -11.5t-5 -12
t-12 -5q-28 0 -45.5 -42.5t-17.5 -97.5q0 -58 18 -96q18 -37 45 -37z" />
    <glyph glyph-name="sterling" unicode="&#xa3;" horiz-adv-x="298" 
d="M244 232.5q4 -5.5 3.5 -12.5t-6.5 -11q-42 -32 -74 -32q-4 0 -8 1q-17 3 -25 17q-16 25 -17 145h-51q-7 0 -11.5 5t-4.5 11.5t4.5 11t11.5 4.5h51q2 109 16 138q3 6 9.5 8t12.5 -1t8.5 -9.5t-0.5 -12.5q-11 -21 -12 -123h47q7 0 11.5 -4.5t4.5 -11t-4.5 -11.5t-11.5 -5
h-48q1 -109 12 -128q1 -1 3 -2q6 -1 16.5 3t21 10t18.5 13q5 4 12 3t11 -6.5z" />
    <glyph glyph-name="yen" unicode="&#xa5;" horiz-adv-x="315" 
d="M249 305q4 0 8 -2.5t6 -6t2 -7.5q0 -7 -4.5 -11.5t-11.5 -4.5h-69q-10 -39 -26 -59q-17 -22 -41 -22q-25 0 -41 18q-29 32 -21 99q1 7 6.5 11t12 3.5t11 -6t3.5 -12.5q-2 -16 0.5 -39t12.5 -34q6 -7 16 -7q8 0 15 10q10 12 18 38h-29q-6 0 -11 4.5t-5 11t5 11.5t11 5h36
q2 12 4 27h-40q-7 0 -11.5 4.5t-4.5 11t4.5 11.5t11.5 5h43q1 19 1 39q-18 -22 -44 -22q-24 0 -40 18q-31 33 -22 118q1 6 6 10.5t12 4t11.5 -6t3.5 -12.5q-7 -69 14 -92q6 -7 15 -7q11 0 20 12q10 14 15 39t3 41q-1 2 -1 5q-2 7 1.5 12.5t10 7.5t12.5 -1.5t8 -10.5
q1 -2 1 -6q12 -59 6 -149h56q7 0 11.5 -5t4.5 -11.5t-4.5 -11t-11.5 -4.5h-59q-1 -14 -3 -27h62z" />
    <glyph glyph-name="copyright" unicode="&#xa9;" horiz-adv-x="317" 
d="M177 468q-28 0 -45.5 -42.5t-17.5 -97.5q0 -58 18 -96q18 -37 45 -37q7 0 12 -5t5 -11.5t-5 -11.5t-12 -5q-48 0 -75 56q-21 45 -21 110q0 69 25 121t71 52q7 0 12 -4.5t5 -11.5t-5 -12t-12 -5zM158.5 550q44.5 0 76.5 -64t32 -154q0 -59 -14.5 -109.5t-39.5 -79.5
t-55 -29q-44 0 -76 63.5t-32 154t32 154.5t76.5 64zM167.5 152q39.5 0 67.5 56t28 135.5t-28 135.5t-67.5 56t-67.5 -56t-28 -135.5t28 -135.5t67.5 -56z" />
    <glyph glyph-name="softhyphen" unicode="&#xad;" horiz-adv-x="0" 
 />
    <glyph glyph-name="registered" unicode="&#xae;" horiz-adv-x="303" 
d="M168 479q0 -29 -32 -40q26 -35 26 -91q0 -9 -8.5 -9t-8.5 9q0 51 -23 82q-1 -62 3 -81q1 -8 -7 -10h-2q-7 0 -8 7q-4 28 -3 87t3 73q1 7 7 8q29 2 42 -10q11 -9 11 -25zM122 454q10 0 19 6.5t9 18.5q0 8 -4 12q-7 6 -22 6q-1 -16 -2 -43zM151 620q42 0 72 -60t30 -144.5
t-30 -144t-72 -59.5t-71.5 59.5t-29.5 144.5q0 55 13.5 102t37 74.5t50.5 27.5zM160 247q37 0 63 52.5t26 127t-26 127t-63 52.5t-63 -52.5t-26 -126.5q0 -37 7 -70t19 -57t28.5 -38.5t34.5 -14.5z" />
    <glyph glyph-name="plusminus" unicode="&#xb1;" horiz-adv-x="398" 
d="M78 312q-12 0 -20 8.5t-8 20t8 19.5t20 8h93v94q0 12 8.5 20t20 8t19.5 -8t8 -20v-94h93q12 0 20 -8t8 -19.5t-8 -20t-20 -8.5h-93v-94q0 -12 -8 -20t-19.5 -8t-20 8t-8.5 20v94h-93zM320 176q12 0 20 -8t8 -19.5t-8 -20t-20 -8.5h-242q-12 0 -20 8.5t-8 20t8 19.5t20 8
h242z" />
    <glyph glyph-name="questiondown" unicode="&#xbf;" horiz-adv-x="361" 
d="M218 625q-6 0 -11 2.5t-8.5 7.5t-5.5 12t-2 14q0 15 8 25.5t19 10.5t19 -10.5t8 -25.5t-8 -25.5t-19 -10.5zM305 181q15 -33 -6.5 -80.5t-62.5 -71.5q-26 -15 -53 -15q-58 0 -103 63q-15 22 -23 45.5t-6.5 50t5 47.5t15.5 52t20.5 48.5t24.5 51.5q21 42 32 65.5
t21.5 59.5t11.5 63q0 12 8 20t20 8q11 0 19.5 -8.5t7.5 -19.5q0 -34 -12 -74.5t-23.5 -66.5t-34.5 -72q-18 -37 -26.5 -55.5t-20 -49t-13 -49.5t2.5 -42t17 -42q40 -56 82 -32q25 14 38.5 42t8.5 38.5t-1 21t14.5 15.5t21.5 1t15 -14z" />
    <glyph glyph-name="Agrave" unicode="&#xc0;" horiz-adv-x="322" 
d="M209 680q30 -32 48 -123t21.5 -208t3.5 -189t-2 -133q-1 -12 -9.5 -20t-20 -7.5t-19 9t-7.5 20.5q7 192 -4 364h-114q-14 -172 -9 -365q0 -11 -8 -19.5t-19 -8.5h-1q-11 0 -19.5 8t-8.5 19q-1 45 -1 96.5t3 145.5t10.5 170t24.5 145.5t42 95.5q20 20 44.5 20t44.5 -20z
M111 449h104q-15 159 -47 192q-2 3 -3.5 3t-4.5 -3q-32 -33 -49 -192zM225 750h-46l-81 74h68z" />
    <glyph glyph-name="Aacute" unicode="&#xc1;" horiz-adv-x="322" 
d="M209 680q30 -32 48 -123t21.5 -208t3.5 -189t-2 -133q-1 -12 -9.5 -20t-20 -7.5t-19 9t-7.5 20.5q7 192 -4 364h-114q-14 -172 -9 -365q0 -11 -8 -19.5t-19 -8.5h-1q-11 0 -19.5 8t-8.5 19q-1 45 -1 96.5t3 145.5t10.5 170t24.5 145.5t42 95.5q20 20 44.5 20t44.5 -20z
M111 449h104q-15 159 -47 192q-2 3 -3.5 3t-4.5 -3q-32 -33 -49 -192zM240 824l-81 -75h-46l59 75h68z" />
    <glyph glyph-name="Acircumflex" unicode="&#xc2;" horiz-adv-x="322" 
d="M209 680q30 -32 48 -123t21.5 -208t3.5 -189t-2 -133q-1 -12 -9.5 -20t-20 -7.5t-19 9t-7.5 20.5q7 192 -4 364h-114q-14 -172 -9 -365q0 -11 -8 -19.5t-19 -8.5h-1q-11 0 -19.5 8t-8.5 19q-1 45 -1 96.5t3 145.5t10.5 170t24.5 145.5t42 95.5q20 20 44.5 20t44.5 -20z
M111 449h104q-15 159 -47 192q-2 3 -3.5 3t-4.5 -3q-32 -33 -49 -192zM152 793l-41 -44h-45l65 73h43l67 -73h-48l-40 44h-1z" />
    <glyph glyph-name="Atilde" unicode="&#xc3;" horiz-adv-x="322" 
d="M209 680q30 -32 48 -123t21.5 -208t3.5 -189t-2 -133q-1 -12 -9.5 -20t-20 -7.5t-19 9t-7.5 20.5q7 192 -4 364h-114q-14 -172 -9 -365q0 -11 -8 -19.5t-19 -8.5h-1q-11 0 -19.5 8t-8.5 19q-1 45 -1 96.5t3 145.5t10.5 170t24.5 145.5t42 95.5q20 20 44.5 20t44.5 -20z
M111 449h104q-15 159 -47 192q-2 3 -3.5 3t-4.5 -3q-32 -33 -49 -192zM128 781q-13 0 -16 -28h-30q-1 29 11 47t32 18q14 0 38 -13q21 -12 31 -12q8 0 12 5.5t5 19.5h30q1 -62 -44 -62q-14 0 -39 13q-23 12 -30 12z" />
    <glyph glyph-name="Adieresis" unicode="&#xc4;" horiz-adv-x="322" 
d="M209 680q30 -32 48 -123t21.5 -208t3.5 -189t-2 -133q-1 -12 -9.5 -20t-20 -7.5t-19 9t-7.5 20.5q7 192 -4 364h-114q-14 -172 -9 -365q0 -11 -8 -19.5t-19 -8.5h-1q-11 0 -19.5 8t-8.5 19q-1 45 -1 96.5t3 145.5t10.5 170t24.5 145.5t42 95.5q20 20 44.5 20t44.5 -20z
M111 449h104q-15 159 -47 192q-2 3 -3.5 3t-4.5 -3q-32 -33 -49 -192zM223 755q-14 0 -22.5 9.5t-8.5 23.5q0 13 9 22.5t22 9.5q9 0 16 -4.5t11 -11.5t4 -16q0 -14 -8.5 -23.5t-22.5 -9.5zM104 755q-13 0 -22 9.5t-9 23t9 23t23 9.5q13 0 21.5 -9.5t8.5 -22.5
q0 -9 -3.5 -16.5t-10.5 -12t-17 -4.5z" />
    <glyph glyph-name="Aring" unicode="&#xc5;" horiz-adv-x="322" 
d="M209 680q30 -32 48 -123t21.5 -208t3.5 -189t-2 -133q-1 -12 -9.5 -20t-20 -7.5t-19 9t-7.5 20.5q7 192 -4 364h-114q-14 -172 -9 -365q0 -11 -8 -19.5t-19 -8.5h-1q-11 0 -19.5 8t-8.5 19q-1 45 -1 96.5t3 145.5t10.5 170t24.5 145.5t42 95.5q20 20 44.5 20t44.5 -20z
M111 449h104q-15 159 -47 192q-2 3 -3.5 3t-4.5 -3q-32 -33 -49 -192zM161 742q-28 0 -45.5 16.5t-17.5 40.5t17.5 41t45.5 17q29 0 46.5 -16.5t17.5 -41.5q0 -24 -18 -40.5t-46 -16.5zM161 834q-7 0 -13 -3t-10 -8t-6 -11t-2 -13q0 -13 9 -23t22 -10t22 10t9 24t-9 24
t-22 10z" />
    <glyph glyph-name="AE" unicode="&#xc6;" horiz-adv-x="550" 
d="M482 55q11 0 19.5 -8t8.5 -19.5t-8.5 -19.5t-19.5 -8h-151q-31 0 -51 39v-12q-1 -12 -9.5 -20t-20 -7.5t-19 9t-7.5 20.5q7 192 -4 364h-114q-14 -172 -9 -365q0 -4 -1.5 -8.5t-4 -8t-5.5 -6t-7.5 -4t-8.5 -1.5h-1q-11 0 -19.5 8t-8.5 19q-1 45 -1 96.5t3 145.5t10.5 170
t24.5 145.5t42 95.5q20 20 44.5 20t44.5 -20q25 -27 42 -97q12 85 36 109q8 8 20 8h151q12 0 20 -8.5t8 -20t-8 -19.5t-20 -8h-136q-21 -46 -27 -195h163q12 0 20 -8t8 -19.5t-8 -20t-20 -8.5h-164q-1 -75 4 -149q4 -59 12 -103t14 -61.5t11 -24.5h147zM111 449h104
q-15 159 -47 192q-2 3 -3.5 3t-4.5 -3q-32 -33 -49 -192z" />
    <glyph glyph-name="Ccedilla" unicode="&#xc7;" horiz-adv-x="303" 
d="M235 0q-17 0 -34 4v-46q22 -5 38 -20t16 -40q0 -33 -24 -51q-19 -13 -45 -13q-13 0 -26 3q-6 2 -9 8t-1 12.5t8 9.5t12 1q24 -8 42 5q12 8 12 25q0 12 -10 19.5t-17 9t-13 1.5q-6 1 -10.5 5.5t-4.5 10.5v72q-52 27 -85 97q-44 93 -44 228q0 67 12 129.5t35 114.5
t61.5 83.5t86.5 31.5q11 0 19.5 -8.5t8.5 -20t-8.5 -19.5t-19.5 -8q-42 0 -74.5 -45t-48.5 -113.5t-16 -144.5q0 -123 38 -204.5t101 -81.5q11 0 19.5 -8t8.5 -19.5t-8.5 -19.5t-19.5 -8z" />
    <glyph glyph-name="Egrave" unicode="&#xc8;" horiz-adv-x="351" 
d="M284 55q11 0 19 -8t8 -19.5t-8 -19.5t-19 -8h-152q-34 0 -54 48q-21 49 -30 145.5t-8 198.5v25v4q0 3 1 6q5 222 48 265q8 8 20 8h151q11 0 19.5 -8.5t8.5 -20t-8.5 -19.5t-19.5 -8h-137q-20 -46 -26 -195h163q11 0 19.5 -8t8.5 -19.5t-8.5 -20t-19.5 -8.5h-164
q-1 -75 4 -149q3 -46 8 -82.5t10.5 -57.5t10 -32.5t8.5 -16.5h147zM211 750h-46l-81 74h68z" />
    <glyph glyph-name="Eacute" unicode="&#xc9;" horiz-adv-x="351" 
d="M284 55q11 0 19 -8t8 -19.5t-8 -19.5t-19 -8h-152q-34 0 -54 48q-21 49 -30 145.5t-8 198.5v25v4q0 3 1 6q5 222 48 265q8 8 20 8h151q11 0 19.5 -8.5t8.5 -20t-8.5 -19.5t-19.5 -8h-137q-20 -46 -26 -195h163q11 0 19.5 -8t8.5 -19.5t-8.5 -20t-19.5 -8.5h-164
q-1 -75 4 -149q3 -46 8 -82.5t10.5 -57.5t10 -32.5t8.5 -16.5h147zM261 824l-81 -75h-46l59 75h68z" />
    <glyph glyph-name="Ecircumflex" unicode="&#xca;" horiz-adv-x="351" 
d="M284 55q11 0 19 -8t8 -19.5t-8 -19.5t-19 -8h-152q-34 0 -54 48q-21 49 -30 145.5t-8 198.5v25v4q0 3 1 6q5 222 48 265q8 8 20 8h151q11 0 19.5 -8.5t8.5 -20t-8.5 -19.5t-19.5 -8h-137q-20 -46 -26 -195h163q11 0 19.5 -8t8.5 -19.5t-8.5 -20t-19.5 -8.5h-164
q-1 -75 4 -149q3 -46 8 -82.5t10.5 -57.5t10 -32.5t8.5 -16.5h147zM196 793l-40 -44h-46l66 73h43l67 -73h-48l-41 44h-1z" />
    <glyph glyph-name="Edieresis" unicode="&#xcb;" horiz-adv-x="351" 
d="M284 55q11 0 19 -8t8 -19.5t-8 -19.5t-19 -8h-152q-34 0 -54 48q-21 49 -30 145.5t-8 198.5v25v4q0 3 1 6q5 222 48 265q8 8 20 8h151q11 0 19.5 -8.5t8.5 -20t-8.5 -19.5t-19.5 -8h-137q-20 -46 -26 -195h163q11 0 19.5 -8t8.5 -19.5t-8.5 -20t-19.5 -8.5h-164
q-1 -75 4 -149q3 -46 8 -82.5t10.5 -57.5t10 -32.5t8.5 -16.5h147zM233 756q-14 0 -23 9.5t-9 23.5q0 13 9 22.5t23 9.5q13 0 22 -9t9 -23t-8.5 -23.5t-22.5 -9.5zM114 756q-14 0 -23 9.5t-9 23.5q0 13 9.5 22.5t23 9.5t22 -9t8.5 -23q0 -9 -4 -16.5t-11 -12t-16 -4.5z" />
    <glyph glyph-name="Igrave" unicode="&#xcc;" horiz-adv-x="207" 
d="M117 689.5q11 4.5 21.5 0.5t15.5 -15q26 -62 2 -649q-1 -11 -9 -18.5t-19 -7.5h-1q-12 0 -19.5 8.5t-7.5 20.5q9 223 10.5 403.5t-8.5 220.5q-4 11 0 21.5t15 15zM167 750h-46l-81 74h68z" />
    <glyph glyph-name="Iacute" unicode="&#xcd;" horiz-adv-x="207" 
d="M87.5 689.5q10.5 4.5 21 0.5t15.5 -15q26 -62 2 -649q0 -11 -8.5 -18.5t-19.5 -7.5h-1q-11 0 -19 8.5t-8 20.5q10 223 11 403.5t-8 220.5q-5 11 -0.5 21.5t15 15zM167 824l-82 -75h-45l59 75h68z" />
    <glyph glyph-name="Icircumflex" unicode="&#xce;" horiz-adv-x="255" 
d="M111.5 689.5q10.5 4.5 21 0.5t15.5 -15q26 -62 2 -649q0 -11 -8.5 -18.5t-19.5 -7.5h-1q-11 0 -19 8.5t-8 20.5q10 223 11 403.5t-8 220.5q-5 11 -0.5 21.5t15 15zM148 822l67 -73h-46l-41 44h-2l-41 -44h-45l65 73h43z" />
    <glyph glyph-name="Idieresis" unicode="&#xcf;" horiz-adv-x="262" 
d="M119.5 662.5q10.5 4.5 21.5 0.5t15 -14q26 -59 2 -624q0 -10 -8 -17.5t-19 -7.5h-2q-11 0 -19 8.5t-7 19.5q9 215 10 388t-8 212q-5 10 -0.5 20t15 14.5zM72 789q13 0 22 -9t9 -22t-8.5 -22t-22.5 -9t-23 9t-9 22t9.5 22t22.5 9zM191 789q13 0 22 -9t9 -22t-9 -22t-23 -9
q-13 0 -22 9t-9 22t9 22t23 9z" />
    <glyph glyph-name="Ntilde" unicode="&#xd1;" horiz-adv-x="397" 
d="M329.5 716q11.5 0 19.5 -8.5t8 -19.5q0 -97 -18 -204q-13 -79 -32.5 -114.5t-48.5 -35.5t-48.5 37t-53.5 137q-29 89 -43 118q-17 -78 -17 -284q0 -74 2 -143.5t5.5 -111t5.5 -51.5q4 -11 -1.5 -21t-16.5 -14q-4 -1 -8 -1q-20 0 -26 19q-8 21 -12.5 118t-4.5 201
q0 291 34 342q12 18 31 20q30 2 50 -35t54 -139q35 -104 49 -129q16 30 30 120.5t14 170.5q0 11 8 19.5t19.5 8.5zM149 753h-30q-1 29 11 47t33 18q13 0 38 -13q20 -12 30 -12q15 0 18 25h29q1 -62 -43 -62q-15 0 -39 13q-23 12 -30 12q-14 0 -17 -28z" />
    <glyph glyph-name="Ograve" unicode="&#xd2;" horiz-adv-x="360" 
d="M290 587q30 -88 30 -219q0 -68 -9 -132.5t-26 -118t-45.5 -85.5t-64.5 -32t-63 31.5t-42 83.5t-22.5 111.5t-7.5 123.5q0 135 28 229q36 121 107 121q77 0 115 -113zM175 55q33 0 61 92t28 221q0 122 -27 201q-25 75 -62 75q-9 0 -18.5 -9.5t-18.5 -28t-17 -43.5
q-25 -86 -25 -213t24.5 -211t54.5 -84zM243 751h-45l-82 74h69z" />
    <glyph glyph-name="Oacute" unicode="&#xd3;" horiz-adv-x="360" 
d="M290 587q30 -88 30 -219q0 -68 -9 -132.5t-26 -118t-45.5 -85.5t-64.5 -32t-63 31.5t-42 83.5t-22.5 111.5t-7.5 123.5q0 135 28 229q36 121 107 121q77 0 115 -113zM175 55q33 0 61 92t28 221q0 122 -27 201q-25 75 -62 75q-9 0 -18.5 -9.5t-18.5 -28t-17 -43.5
q-25 -86 -25 -213t24.5 -211t54.5 -84zM258 825l-81 -74h-46l60 74h67z" />
    <glyph glyph-name="Ocircumflex" unicode="&#xd4;" horiz-adv-x="360" 
d="M290 587q30 -88 30 -219q0 -68 -9 -132.5t-26 -118t-45.5 -85.5t-64.5 -32t-63 31.5t-42 83.5t-22.5 111.5t-7.5 123.5q0 135 28 229q36 121 107 121q77 0 115 -113zM175 55q33 0 61 92t28 221q0 122 -27 201q-25 75 -62 75q-9 0 -18.5 -9.5t-18.5 -28t-17 -43.5
q-25 -86 -25 -213t24.5 -211t54.5 -84zM178 795l-40 -44h-46l66 73h43l67 -73h-48l-41 44h-1z" />
    <glyph glyph-name="Otilde" unicode="&#xd5;" horiz-adv-x="360" 
d="M290 587q30 -88 30 -219q0 -68 -9 -132.5t-26 -118t-45.5 -85.5t-64.5 -32t-63 31.5t-42 83.5t-22.5 111.5t-7.5 123.5q0 135 28 229q36 121 107 121q77 0 115 -113zM175 55q33 0 61 92t28 221q0 122 -27 201q-25 75 -62 75q-9 0 -18.5 -9.5t-18.5 -28t-17 -43.5
q-25 -86 -25 -213t24.5 -211t54.5 -84zM131 754h-30q-1 29 10.5 47t32.5 18q15 0 38 -13q20 -11 30 -11q15 0 18 25h29q1 -62 -43 -62q-15 0 -39 12q-23 12 -30 12q-14 0 -16 -28z" />
    <glyph glyph-name="Odieresis" unicode="&#xd6;" horiz-adv-x="360" 
d="M290 587q30 -88 30 -219q0 -68 -9 -132.5t-26 -118t-45.5 -85.5t-64.5 -32t-63 31.5t-42 83.5t-22.5 111.5t-7.5 123.5q0 135 28 229q36 121 107 121q77 0 115 -113zM175 55q33 0 61 92t28 221q0 122 -27 201q-25 75 -62 75q-9 0 -18.5 -9.5t-18.5 -28t-17 -43.5
q-25 -86 -25 -213t24.5 -211t54.5 -84zM134 756q-9 0 -16 4.5t-11 12t-4 16.5q0 13 9 22.5t22.5 9.5t22 -9t8.5 -23t-8.5 -23.5t-22.5 -9.5zM253 756q-14 0 -23 9.5t-9 23.5q0 13 9.5 22.5t22.5 9.5q14 0 22.5 -9t8.5 -23t-8.5 -23.5t-22.5 -9.5z" />
    <glyph glyph-name="multiply" unicode="&#xd7;" horiz-adv-x="323" 
d="M202 344l63 -67q8 -9 7.5 -20.5t-8.5 -19.5q-8 -7 -19 -7q-12 0 -21 9l-61 65l-65 -66q-9 -8 -20.5 -8t-19.5 8t-8 19.5t8 19.5l67 68l-58 63q-7 8 -7 19.5t8.5 19.5t20 7.5t19.5 -8.5l57 -61l60 61q8 8 19.5 8.5t20 -8t8.5 -20t-8 -19.5z" />
    <glyph glyph-name="Oslash" unicode="&#xd8;" horiz-adv-x="375" 
d="M306 587q29 -88 29 -219q0 -68 -8.5 -132.5t-25.5 -118t-45.5 -85.5t-64.5 -32q-57 0 -92 81l-28 -86q-3 -11 -15 -11q-3 0 -5 1q-6 2 -9 7.5t-1 12.5l40 126q-25 92 -25 219q0 135 28 229q36 121 107 121q36 0 64 -26l37 114q2 6 7.5 9t12.5 1q4 -1 6.5 -4t3.5 -7t0 -9
l-43 -133q16 -24 27 -58zM112 350q0 -56 5 -107l118 367q-20 34 -44 34q-9 0 -18.5 -9.5t-18.5 -28t-17 -43.5q-25 -86 -25 -213zM191 55q33 0 61 92t28 221q0 120 -26 198l-126 -393q12 -55 28.5 -86.5t34.5 -31.5z" />
    <glyph glyph-name="Ugrave" unicode="&#xd9;" horiz-adv-x="372" 
d="M314 673q10 -33 15 -116t1.5 -179.5t-23.5 -191.5t-53 -141q-33 -45 -78 -45q-37 0 -64 31q-27 32 -44.5 103t-22.5 150t-4.5 162t4 142t8.5 88q2 12 11 18.5t20.5 5t18.5 -11t5 -20.5q-7 -46 -10.5 -130t-1 -178.5t17 -178t41.5 -114.5q10 -12 21 -12q17 0 33 23
q37 51 53.5 180t14 243.5t-15.5 153.5q-4 11 1 21.5t16 13.5q6 2 11.5 1.5t10 -2.5t8.5 -6.5t6 -9.5zM250 750h-46l-82 74h68z" />
    <glyph glyph-name="Uacute" unicode="&#xda;" horiz-adv-x="372" 
d="M314 673q10 -33 15 -116t1.5 -179.5t-23.5 -191.5t-53 -141q-33 -45 -78 -45q-37 0 -64 31q-27 32 -44.5 103t-22.5 150t-4.5 162t4 142t8.5 88q2 12 11 18.5t20.5 5t18.5 -11t5 -20.5q-7 -46 -10.5 -130t-1 -178.5t17 -178t41.5 -114.5q10 -12 21 -12q17 0 33 23
q37 51 53.5 180t14 243.5t-15.5 153.5q-4 11 1 21.5t16 13.5q6 2 11.5 1.5t10 -2.5t8.5 -6.5t6 -9.5zM285 824l-81 -75h-46l59 75h68z" />
    <glyph glyph-name="Ucircumflex" unicode="&#xdb;" horiz-adv-x="372" 
d="M314 673q10 -33 15 -116t1.5 -179.5t-23.5 -191.5t-53 -141q-33 -45 -78 -45q-37 0 -64 31q-27 32 -44.5 103t-22.5 150t-4.5 162t4 142t8.5 88q2 12 11 18.5t20.5 5t18.5 -11t5 -20.5q-7 -46 -10.5 -130t-1 -178.5t17 -178t41.5 -114.5q10 -12 21 -12q17 0 33 23
q37 51 53.5 180t14 243.5t-15.5 153.5q-4 11 1 21.5t16 13.5q6 2 11.5 1.5t10 -2.5t8.5 -6.5t6 -9.5zM188 793l-41 -44h-45l65 73h43l67 -73h-47l-41 44h-1z" />
    <glyph glyph-name="Udieresis" unicode="&#xdc;" horiz-adv-x="372" 
d="M314 673q10 -33 15 -116t1.5 -179.5t-23.5 -191.5t-53 -141q-33 -45 -78 -45q-37 0 -64 31q-27 32 -44.5 103t-22.5 150t-4.5 162t4 142t8.5 88q2 12 11 18.5t20.5 5t18.5 -11t5 -20.5q-7 -46 -10.5 -130t-1 -178.5t17 -178t41.5 -114.5q10 -12 21 -12q17 0 33 23
q37 51 53.5 180t14 243.5t-15.5 153.5q-4 11 1 21.5t16 13.5q6 2 11.5 1.5t10 -2.5t8.5 -6.5t6 -9.5zM246 756q-14 0 -22.5 9.5t-8.5 23.5q0 9 4 16t11 11.5t16 4.5q13 0 21.5 -9t8.5 -23t-8.5 -23.5t-21.5 -9.5zM127 756q-14 0 -22.5 9.5t-8.5 23.5q0 9 4 16t11.5 11.5
t15.5 4.5q13 0 22 -9.5t9 -22.5q0 -14 -8.5 -23.5t-22.5 -9.5z" />
    <glyph glyph-name="Yacute" unicode="&#xdd;" horiz-adv-x="369" 
d="M315 665q9 -51 12 -134.5t-1 -177t-24.5 -180.5t-54.5 -130q-35 -43 -82 -43q-49 0 -81 35q-19 22 -30 55t-12.5 66.5t-1 51t1.5 30.5q2 11 11 18t20.5 6t18.5 -10t6 -21q-5 -36 0.5 -85t27.5 -74q15 -17 39 -17q20 0 38 23q36 45 53.5 152t17.5 230q-4 -7 -9 -13
q-37 -50 -92 -50q-47 0 -78 35q-20 22 -31.5 55.5t-14 70.5t-2 64t2.5 53q1 7 5.5 13t11 9t14.5 3q11 -2 18.5 -10.5t6.5 -20.5q-8 -52 -0.5 -113t30.5 -87q15 -16 37 -16q27 0 48 27q16 22 26.5 57.5t12.5 65t0 52.5q-1 6 -2 11q-3 11 3 20.5t17 12.5t20.5 -3t13.5 -16
q1 -7 3 -15zM248 820l-81 -74h-46l59 74h68z" />
    <glyph glyph-name="agrave" unicode="&#xe0;" 
d="M182 541q24 -26 39 -99t18 -166.5t3 -151.5t-2 -106q0 -12 -8.5 -19.5t-19.5 -7.5h-1q-11 0 -19 8.5t-8 20.5q5 109 0 236q-1 24 -3 48h-80q-1 -23 -3 -49q-7 -125 -3 -236q0 -11 -8 -19.5t-20 -8.5t-20 8t-8 19q-3 26 -1 103t5.5 159t19 159t40.5 102q18 18 40 18
t39 -18zM107 360h69q-11 117 -33 142q-23 -25 -36 -142zM174 575h-39l-78 92h62z" />
    <glyph glyph-name="aacute" unicode="&#xe1;" 
d="M182 541q24 -26 39 -99t18 -166.5t3 -151t-2 -106.5q0 -12 -8.5 -19.5t-19.5 -7.5h-1q-11 0 -19 8.5t-8 20.5q5 109 0 236q-1 24 -3 48h-80q-1 -23 -3 -49q-7 -125 -3 -236q0 -11 -8 -19.5t-20 -8.5t-20 8t-8 19q-3 26 -1 103t5.5 159t19 159t40.5 102q18 18 40 18
t39 -18zM107 360h69q-11 117 -33 142q-23 -25 -36 -142zM212 667l-79 -92h-40l56 92h63z" />
    <glyph glyph-name="acircumflex" unicode="&#xe2;" 
d="M182 541q24 -26 39 -99t18 -166.5t3 -151t-2 -106.5q0 -12 -8.5 -19.5t-19.5 -7.5h-1q-11 0 -19 8.5t-8 20.5q5 109 0 236q-1 24 -3 48h-80q-1 -23 -3 -49q-7 -125 -3 -236q0 -11 -8 -19.5t-20 -8.5t-20 8t-8 19q-3 26 -1 103t5.5 159t19 159t40.5 102q18 18 40 18
t39 -18zM107 360h69q-11 117 -33 142q-23 -25 -36 -142zM139 636l-37 -61h-42l60 92h39l61 -92h-43l-37 61h-1z" />
    <glyph glyph-name="atilde" unicode="&#xe3;" 
d="M182 541q24 -26 39 -99t18 -166.5t3 -151t-2 -106.5q0 -12 -8.5 -19.5t-19.5 -7.5h-1q-11 0 -19 8.5t-8 20.5q5 109 0 236q-1 24 -3 48h-80q-1 -23 -3 -49q-7 -125 -3 -236q0 -11 -8 -19.5t-20 -8.5t-20 8t-8 19q-3 26 -1 103t5.5 159t19 159t40.5 102q18 18 40 18
t39 -18zM107 360h69q-11 117 -33 142q-23 -25 -36 -142zM92 586h-31q-1 31 11 49t33 18q14 0 40 -14q19 -11 26 -11q16 0 18 27h30q2 -64 -44 -64q-15 0 -39 12q-19 12 -27 12q-15 0 -17 -29z" />
    <glyph glyph-name="adieresis" unicode="&#xe4;" 
d="M182 541q24 -26 39 -99t18 -166.5t3 -151.5t-2 -106q0 -12 -8.5 -19.5t-19.5 -7.5h-1q-11 0 -19 8.5t-8 20.5q5 109 0 236q-1 24 -3 48h-80q-1 -23 -3 -49q-7 -125 -3 -236q0 -11 -8 -19.5t-20 -8.5t-20 8t-8 19q-3 26 -1 103t5.5 159t19 159t40.5 102q18 18 40 18
t39 -18zM107 360h69q-11 117 -33 142q-23 -25 -36 -142zM189 588q-9 0 -16.5 4.5t-11.5 12t-4 16.5q0 13 9.5 22.5t22.5 9.5t22 -9t9 -23t-9 -23.5t-22 -9.5zM71 588q-14 0 -23.5 9.5t-9.5 23t9.5 23t23 9.5t22.5 -9t9 -23t-9 -23.5t-22 -9.5z" />
    <glyph glyph-name="aring" unicode="&#xe5;" 
d="M182 541q24 -26 39 -99t18 -166.5t3 -151t-2 -106.5q0 -12 -8.5 -19.5t-19.5 -7.5h-1q-11 0 -19 8.5t-8 20.5q5 109 0 236q-1 24 -3 48h-80q-1 -23 -3 -49q-7 -125 -3 -236q0 -11 -8 -19.5t-20 -8.5t-20 8t-8 19q-3 26 -1 103t5.5 159t19 159t40.5 102q18 18 40 18
t39 -18zM107 360h69q-11 117 -33 142q-23 -25 -36 -142zM140 567q-28 0 -46 16.5t-18 41.5q0 26 17.5 43.5t47.5 17.5q28 0 45.5 -17t17.5 -43q0 -25 -18 -42t-46 -17zM140 662q-10 0 -17 -5t-11 -13.5t-4 -18.5q0 -13 9 -23.5t23 -10.5q15 0 24 10.5t9 25t-9 25t-24 10.5z
" />
    <glyph glyph-name="ae" unicode="&#xe6;" horiz-adv-x="447" 
d="M382 47q11 0 19 -8.5t8 -20t-8 -19.5t-19 -8h-121q-15 0 -27 10q-9 -10 -22 -10h-1q-11 0 -19 8.5t-8 20.5q4 81 1 187q-2 35 -3 72q0 13 -1 25h-80q-1 -23 -3 -49q-7 -125 -3 -236q0 -11 -8 -19.5t-20 -8.5t-20 8t-8 19q-3 26 -1 103t5.5 159t19 159t40.5 102
q18 18 40 18t39 -18q11 -11 20 -34q9 32 21 44q8 8 20 8h120q11 0 19 -8.5t8 -20t-8 -19.5t-19 -8h-105q-14 -39 -19 -143h124q11 0 19 -8.5t8 -20t-8 -19.5t-19 -8h-125v-14q3 -48 4 -104q8 -112 26 -139h114zM107 360h69q-11 117 -33 142q-23 -25 -36 -142z" />
    <glyph glyph-name="ccedilla" unicode="&#xe7;" horiz-adv-x="270" 
d="M232 -80q1 -22 -13 -36q-16 -15 -46 -15h-8q-6 1 -10 6t-3.5 11.5t5.5 10.5t12 3q20 -1 28 7q4 3 3 11q0 8 -5.5 13.5t-13.5 7t-12 2t-6 -0.5q-7 0 -12 4.5t-5 11.5v47q-45 23 -73 81q-35 75 -35 184q0 74 16.5 138t54 108.5t90.5 44.5q11 0 19 -8.5t8 -20t-8 -19.5
t-19 -8q-32 0 -56.5 -35t-36.5 -88t-12 -112q0 -96 30 -160q29 -61 75 -61q11 0 19.5 -8.5t8.5 -20t-8.5 -19.5t-19.5 -8t-21 2v-22q21 -3 36.5 -15t17.5 -36z" />
    <glyph glyph-name="egrave" unicode="&#xe8;" horiz-adv-x="303" 
d="M237 47q12 0 20 -8.5t8 -20t-8 -19.5t-20 -8h-120q-31 0 -48 42q-15 36 -23.5 121t-7.5 175v3v4q4 178 41 215q8 8 19 8h120q12 0 20 -8.5t8 -20t-8 -19.5t-20 -8h-104q-15 -39 -19 -143h123q12 0 20 -8.5t8 -20t-8 -19.5t-20 -8h-124v-28q1 -91 10 -152t19 -77h114z
M191 575h-40l-78 92h62z" />
    <glyph glyph-name="eacute" unicode="&#xe9;" horiz-adv-x="303" 
d="M237 47q12 0 20 -8.5t8 -20t-8 -19.5t-20 -8h-120q-31 0 -48 42q-15 36 -23.5 121t-7.5 175v3v4q4 178 41 215q8 8 19 8h120q12 0 20 -8.5t8 -20t-8 -19.5t-20 -8h-104q-15 -39 -19 -143h123q12 0 20 -8.5t8 -20t-8 -19.5t-20 -8h-124v-28q1 -91 10 -152t19 -77h114z
M211 667l-78 -92h-41l57 92h62z" />
    <glyph glyph-name="ecircumflex" unicode="&#xea;" horiz-adv-x="303" 
d="M237 47q12 0 20 -8.5t8 -20t-8 -19.5t-20 -8h-120q-31 0 -48 42q-15 36 -23.5 121t-7.5 175v3v4q4 178 41 215q8 8 19 8h120q12 0 20 -8.5t8 -20t-8 -19.5t-20 -8h-104q-15 -39 -19 -143h123q12 0 20 -8.5t8 -20t-8 -19.5t-20 -8h-124v-28q1 -91 10 -152t19 -77h114z
M166 636l-37 -61h-42l61 92h38l61 -92h-43l-37 61h-1z" />
    <glyph glyph-name="edieresis" unicode="&#xeb;" horiz-adv-x="303" 
d="M237 47q12 0 20 -8.5t8 -20t-8 -19.5t-20 -8h-120q-31 0 -48 42q-15 36 -23.5 121t-7.5 175v3v4q4 178 41 215q8 8 19 8h120q12 0 20 -8.5t8 -20t-8 -19.5t-20 -8h-104q-15 -39 -19 -143h123q12 0 20 -8.5t8 -20t-8 -19.5t-20 -8h-124v-28q1 -91 10 -152t19 -77h114z
M223 588q-14 0 -23 9.5t-9 23t9.5 23t22.5 9.5t22 -9t9 -23t-8.5 -23.5t-22.5 -9.5zM105 588q-10 0 -17.5 4.5t-11.5 12t-4 16.5q0 13 9.5 22.5t23 9.5t22.5 -9t9 -23t-9 -23.5t-22 -9.5z" />
    <glyph glyph-name="igrave" unicode="&#xec;" horiz-adv-x="194" 
d="M82 550.5q11 4.5 21.5 0t15.5 -14.5q21 -50 2 -518q-1 -12 -9 -19.5t-19 -7.5h-1q-12 0 -19.5 8.5t-7.5 20.5q7 176 8 318.5t-6 175.5q-4 11 0 21.5t15 15zM156 575h-39l-79 92h62z" />
    <glyph glyph-name="iacute" unicode="&#xed;" horiz-adv-x="194" 
d="M55 550.5q11 4.5 21.5 0t15.5 -14.5q21 -50 2 -518q-1 -12 -9 -19.5t-19 -7.5h-1q-12 0 -19.5 8.5t-7.5 20.5q7 176 8 318.5t-6 175.5q-4 11 0 21.5t15 15zM156 667l-78 -92h-40l56 92h62z" />
    <glyph glyph-name="icircumflex" unicode="&#xee;" horiz-adv-x="237" 
d="M103 550.5q11 4.5 21.5 0t15.5 -14.5q21 -50 2 -518q-1 -12 -9 -19.5t-19 -7.5h-1q-12 0 -19.5 8.5t-7.5 20.5q8 176 9 318.5t-7 175.5q-4 11 0 21.5t15 15zM137 667l62 -92h-44l-37 61h-1l-37 -61h-42l60 92h39z" />
    <glyph glyph-name="idieresis" unicode="&#xef;" horiz-adv-x="258" 
d="M122.5 550.5q10.5 4.5 21 0t15.5 -14.5q21 -50 2 -518q0 -12 -8.5 -19.5t-19.5 -7.5h-1q-11 0 -19 8.5t-8 20.5q8 176 9 318.5t-7 175.5q-4 11 0.5 21.5t15 15zM70.5 653q13.5 0 22.5 -9t9 -23t-9 -23.5t-22 -9.5q-14 0 -23.5 9.5t-9.5 23t9.5 23t23 9.5zM189 653
q13 0 22 -9t9 -23t-9 -23.5t-22 -9.5q-14 0 -23 9.5t-9 23t9.5 23t22.5 9.5z" />
    <glyph glyph-name="ntilde" unicode="&#xf1;" horiz-adv-x="340" 
d="M273.5 571q11.5 0 20 -8t8.5 -19q0 -78 -15 -163q-7 -44 -17 -71.5t-23 -40.5t-30 -13q-14 0 -24.5 8t-21 29t-18.5 42t-22 64q-18 53 -27 77q-11 -83 -10 -249.5t10 -199.5q3 -7 1.5 -14t-6.5 -12.5t-12 -8.5q-5 -1 -9 -1q-20 0 -27 19q-13 40 -13 255q0 233 28 276
q11 16 29 18q10 0 18 -3t16 -13t14 -19.5t13.5 -30t12.5 -34.5t15 -43q22 -67 33 -90q11 31 20 96.5t9 121.5q0 11 8 19t19.5 8zM122 586h-31q-1 31 11 49t32 18q15 0 40 -14q20 -11 27 -11q16 0 18 27h30q1 -64 -44 -64q-15 0 -39 12q-19 12 -28 12q-14 0 -16 -29z" />
    <glyph glyph-name="ograve" unicode="&#xf2;" horiz-adv-x="310" 
d="M248 465q24 -70 24 -175q0 -47 -6 -94.5t-18.5 -96t-37.5 -78.5t-59 -30q-30 0 -52.5 24.5t-35.5 66.5t-19 90.5t-6 102.5q0 108 22 184q30 100 91 100q65 0 97 -94zM151 47q14 0 28.5 29t25.5 87t11 127q0 95 -21 157q-19 56 -44 56q-8 0 -18 -15.5t-19 -44.5
q-20 -68 -20 -168q0 -67 9.5 -121t22.5 -80.5t25 -26.5zM214 575h-40l-78 92h62z" />
    <glyph glyph-name="oacute" unicode="&#xf3;" horiz-adv-x="310" 
d="M248 465q24 -70 24 -175q0 -47 -6 -94.5t-18.5 -96t-37.5 -78.5t-59 -30q-30 0 -52.5 24.5t-35.5 66.5t-19 90.5t-6 102.5q0 108 22 184q30 100 91 100q65 0 97 -94zM151 47q14 0 28.5 29t25.5 87t11 127q0 95 -21 157q-19 56 -44 56q-8 0 -18 -15.5t-19 -44.5
q-20 -68 -20 -168q0 -67 9.5 -121t22.5 -80.5t25 -26.5zM214 667l-78 -92h-40l56 92h62z" />
    <glyph glyph-name="ocircumflex" unicode="&#xf4;" horiz-adv-x="310" 
d="M248 465q24 -70 24 -175q0 -47 -6 -94.5t-18.5 -96t-37.5 -78.5t-59 -30q-30 0 -52.5 24.5t-35.5 66.5t-19 90.5t-6 102.5q0 108 22 184q30 100 91 100q65 0 97 -94zM151 47q14 0 28.5 29t25.5 87t11 127q0 95 -21 157q-19 56 -44 56q-8 0 -18 -15.5t-19 -44.5
q-20 -68 -20 -168q0 -67 9.5 -121t22.5 -80.5t25 -26.5zM153 636l-37 -61h-41l60 92h39l61 -92h-43l-38 61h-1z" />
    <glyph glyph-name="otilde" unicode="&#xf5;" horiz-adv-x="310" 
d="M248 465q24 -70 24 -175q0 -47 -6 -94.5t-18.5 -96t-37.5 -78.5t-59 -30q-30 0 -52.5 24.5t-35.5 66.5t-19 90.5t-6 102.5q0 108 22 184q30 100 91 100q65 0 97 -94zM151 47q14 0 28.5 29t25.5 87t11 127q0 95 -21 157q-19 56 -44 56q-8 0 -18 -15.5t-19 -44.5
q-20 -68 -20 -168q0 -67 9.5 -121t22.5 -80.5t25 -26.5zM107 586h-31q-1 31 11 49t32 18q15 0 40 -14q19 -11 27 -11q16 0 18 27h30q1 -64 -44 -64q-15 0 -39 12q-19 12 -28 12q-14 0 -16 -29z" />
    <glyph glyph-name="odieresis" unicode="&#xf6;" horiz-adv-x="310" 
d="M248 465q24 -70 24 -175q0 -47 -6 -94.5t-18.5 -96t-37.5 -78.5t-59 -30q-30 0 -52.5 24.5t-35.5 66.5t-19 90.5t-6 102.5q0 108 22 184q30 100 91 100q65 0 97 -94zM151 47q14 0 28.5 29t25.5 87t11 127q0 95 -21 157q-19 56 -44 56q-8 0 -18 -15.5t-19 -44.5
q-20 -68 -20 -168q0 -67 9.5 -121t22.5 -80.5t25 -26.5zM203 588q-14 0 -23 9.5t-9 23t9 23t22.5 9.5t22.5 -9t9 -23t-9 -23.5t-22 -9.5zM84 588q-14 0 -23 9.5t-9 23t9.5 23t22.5 9.5q9 0 16.5 -4t11.5 -11.5t4 -16.5q0 -14 -9 -23.5t-23 -9.5z" />
    <glyph glyph-name="divide" unicode="&#xf7;" horiz-adv-x="402" 
d="M217.5 223q-11.5 0 -19 10.5t-7.5 26t7.5 26t19.5 10.5q7 0 13.5 -5t10 -13.5t3.5 -17.5q0 -16 -8 -26.5t-19.5 -10.5zM217.5 376q-11.5 0 -19 11t-7.5 26t7.5 25.5t19.5 10.5q7 0 13.5 -5t10 -13t3.5 -18q0 -15 -8 -26t-19.5 -11zM324 367q12 0 20 -8t8 -19.5t-8 -20
t-20 -8.5h-246q-12 0 -20 8.5t-8 20t8 19.5t20 8h246z" />
    <glyph glyph-name="oslash" unicode="&#xf8;" horiz-adv-x="359" 
d="M309.5 671q6.5 -2 9.5 -7.5t1 -12.5l-54 -169q4 -9 6 -17q24 -70 24 -175q0 -37 -3 -74.5t-12 -79t-22 -73t-34.5 -52t-48.5 -20.5q-33 0 -58 30l-49 -153q-3 -11 -15 -11q-3 0 -5 1q-6 2 -9 7.5t-1 12.5l58 180q-34 78 -34 217q0 108 22 184q30 100 91 100q40 0 69 -38
l45 140q2 6 7.5 9t12 1zM118 275q0 -66 9 -120l93 290v1v1q-19 56 -44 56q-8 0 -18.5 -15.5t-19.5 -44.5q-20 -68 -20 -168zM176 47q13 0 28 29t25.5 87t10.5 127q0 49 -6 93l-92 -288q16 -48 34 -48z" />
    <glyph glyph-name="ugrave" unicode="&#xf9;" horiz-adv-x="319" 
d="M267 533q12 -36 15 -134t-13 -209.5t-50 -159.5q-28 -39 -67 -39q-32 0 -55 27q-30 34 -44.5 115t-14.5 167.5t3.5 149t6.5 85.5q2 12 11.5 18.5t20.5 5t18 -11t5 -20.5q-8 -53 -10 -148.5t9.5 -195t36.5 -129.5q7 -7 13 -7q10 0 21 15q29 40 42 141.5t11 191.5t-12 121
q-4 11 1 21t16 14t21.5 -1.5t14.5 -16.5zM219 575h-40l-79 92h63z" />
    <glyph glyph-name="uacute" unicode="&#xfa;" horiz-adv-x="319" 
d="M267 533q12 -36 15 -134t-13 -209.5t-50 -159.5q-28 -39 -67 -39q-32 0 -55 27q-30 34 -44.5 115t-14.5 167.5t3.5 149t6.5 85.5q2 12 11.5 18.5t20.5 5t18 -11t5 -20.5q-8 -53 -10 -148.5t9.5 -195t36.5 -129.5q7 -7 13 -7q10 0 21 15q29 40 42 141.5t11 191.5t-12 121
q-4 11 1 21t16 14t21.5 -1.5t14.5 -16.5zM231 667l-78 -92h-40l56 92h62z" />
    <glyph glyph-name="ucircumflex" unicode="&#xfb;" horiz-adv-x="319" 
d="M267 533q12 -36 15 -134t-13 -209.5t-50 -159.5q-28 -39 -67 -39q-32 0 -55 27q-30 34 -44.5 115t-14.5 167.5t3.5 149t6.5 85.5q2 12 11.5 18.5t20.5 5t18 -11t5 -20.5q-8 -53 -10 -148.5t9.5 -195t36.5 -129.5q7 -7 13 -7q10 0 21 15q29 40 42 141.5t11 191.5t-12 121
q-4 11 1 21t16 14t21.5 -1.5t14.5 -16.5zM159 636l-37 -61h-43l61 92h38l62 -92h-43l-37 61h-1z" />
    <glyph glyph-name="udieresis" unicode="&#xfc;" horiz-adv-x="319" 
d="M267 533q12 -36 15 -134t-13 -209.5t-50 -159.5q-28 -39 -67 -39q-32 0 -55 27q-30 34 -44.5 115t-14.5 167.5t3.5 149t6.5 85.5q2 12 11.5 18.5t20.5 5t18 -11t5 -20.5q-8 -53 -10 -148.5t9.5 -195t36.5 -129.5q7 -7 13 -7q10 0 21 15q29 40 42 141.5t11 191.5t-12 121
q-4 11 1 21t16 14t21.5 -1.5t14.5 -16.5zM212 588q-14 0 -23 9.5t-9 23t9.5 23t22.5 9.5t22 -9t9 -23t-8.5 -23.5t-22.5 -9.5zM94 588q-10 0 -17.5 4.5t-11.5 12t-4 16.5q0 13 9.5 22.5t23 9.5t22.5 -9t9 -23t-9 -23.5t-22 -9.5z" />
    <glyph glyph-name="yacute" unicode="&#xfd;" horiz-adv-x="318" 
d="M267 528q12 -59 13.5 -154t-15.5 -198t-53 -148q-29 -37 -69 -37q-41 0 -68 30q-16 18 -25 45t-10.5 54t-1 41.5t1.5 24.5q1 12 10 19t20.5 6t18.5 -10.5t6 -20.5q-3 -27 1 -65t20 -57q11 -11 27 -11q13 0 26 15q27 34 40.5 112t14.5 170q-31 -37 -74 -37q-40 0 -67 29
q-51 57 -37 198q1 11 10 18.5t20.5 6t19 -10t6.5 -20.5q-6 -38 -0.5 -86.5t22.5 -67.5q10 -11 26 -11q18 0 33 19q18 24 26 65.5t4 68.5q-1 4 -2 9q-2 11 3.5 20.5t16.5 12.5t21 -3t13 -16q1 -5 2 -11zM243 667l-78 -92h-41l57 92h62z" />
    <glyph glyph-name="ydieresis" unicode="&#xff;" horiz-adv-x="318" 
d="M267 528q12 -59 13.5 -154t-15.5 -198t-53 -148q-29 -37 -69 -37q-41 0 -68 30q-16 18 -25 45t-10.5 54t-1 41.5t1.5 24.5q1 12 10 19t20.5 6t18.5 -10.5t6 -20.5q-3 -27 1 -65t20 -57q11 -11 27 -11q13 0 26 15q27 34 40.5 112t14.5 170q-31 -37 -74 -37q-40 0 -67 29
q-51 57 -37 198q1 11 10 18.5t20.5 6t19 -10t6.5 -20.5q-6 -38 -0.5 -86.5t22.5 -67.5q10 -11 26 -11q18 0 33 19q18 24 26 65.5t4 68.5q-1 4 -2 9q-2 11 3.5 20.5t16.5 12.5t21 -3t13 -16q1 -5 2 -11zM201 588q-14 0 -22.5 9.5t-8.5 23.5q0 6 2.5 12t6.5 10.5t10 7t13 2.5
q13 0 22 -9t9 -23t-9 -23.5t-23 -9.5zM83 588q-14 0 -23 9.5t-9 23t9.5 23t23 9.5t22.5 -9t9 -23t-9 -23.5t-23 -9.5z" />
    <glyph glyph-name="dotlessi" unicode="&#x131;" horiz-adv-x="140" 
d="M92 536q21 -51 2 -518q-1 -12 -9 -19.5t-19 -7.5h-1q-12 0 -19.5 8.5t-7.5 20.5q7 176 8 318.5t-6 175.5q-4 11 0 21.5t15 15t21.5 0t15.5 -14.5z" />
    <glyph glyph-name="OE" unicode="&#x152;" horiz-adv-x="585" 
d="M517 55q7 0 13.5 -3.5t10.5 -10t4 -13.5q0 -12 -8.5 -20t-19.5 -8h-151q-35 0 -55 48q-13 31 -22 85q-40 -133 -114 -133q-36 0 -63 31.5t-42 83.5t-22.5 111.5t-7.5 123.5q0 135 28 229q36 121 107 121q74 0 112 -106q13 75 35 98q8 8 20 8h151q11 0 19.5 -8.5t8.5 -20
t-8.5 -19.5t-19.5 -8h-136q-21 -46 -27 -195h163q11 0 19.5 -8t8.5 -19.5t-8.5 -20t-19.5 -8.5h-164q-1 -75 4 -149q4 -59 11.5 -103t13.5 -61.5t12 -24.5h147zM175 55q33 0 61 92t28 221q0 122 -27 201q-25 75 -62 75q-9 0 -18.5 -9.5t-18.5 -28t-17 -43.5
q-25 -86 -25 -213t24.5 -211t54.5 -84z" />
    <glyph glyph-name="oe" unicode="&#x153;" horiz-adv-x="481" 
d="M415 47q12 0 20 -8.5t8 -20t-8 -19.5t-20 -8h-120q-31 0 -49 42q-5 13 -10 35q-32 -77 -85 -77q-30 0 -52.5 24.5t-35.5 66.5t-19 90.5t-6 102.5q0 108 22 184q30 100 91 100q51 0 83 -60q9 38 23 52q8 8 19 8h120q12 0 20 -8.5t8 -20t-8 -19.5t-20 -8h-104
q-15 -39 -19 -143h123q12 0 20 -8.5t8 -20t-8 -19.5t-20 -8h-124v-28q0 -47 3 -88.5t7.5 -69t9.5 -46t9 -25.5h114zM151 47q14 0 28.5 29t25.5 87t11 127q0 95 -21 157q-19 56 -44 56q-8 0 -18 -15.5t-19 -44.5q-20 -68 -20 -168q0 -67 9.5 -121t22.5 -80.5t25 -26.5z" />
    <glyph glyph-name="Scaron" unicode="&#x160;" horiz-adv-x="305" 
d="M194 378q43 -59 59.5 -125t9.5 -118t-31 -91q-35 -55 -84 -55q-6 0 -13 1q-69 12 -94 135q-3 12 3.5 21.5t17.5 11.5q8 2 15 -0.5t12 -8t6 -12.5q6 -30 15.5 -51.5t18 -30.5t16.5 -10q19 -4 39 28q20 31 25 73t-9.5 96t-50.5 103q-48 65 -67.5 129.5t-14 108.5t26.5 75
q17 26 41 37.5t48 6.5q9 -2 18 -7t20.5 -16t20.5 -32.5t13 -50.5q1 -12 -6 -21t-18.5 -10.5t-20.5 5.5t-11 19q-3 27 -11.5 41.5t-16.5 16.5q-15 4 -31 -19q-16 -25 -17.5 -61t16 -86.5t55.5 -102.5zM175 751h-43l-67 73h47l41 -45h1l41 45h45z" />
    <glyph glyph-name="scaron" unicode="&#x161;" horiz-adv-x="266" 
d="M171 301q35 -48 48.5 -102t7.5 -96.5t-26 -73.5q-29 -47 -71 -47q-6 0 -12 1q-58 11 -79 112q-3 12 3.5 21.5t18 12t21 -4t11.5 -17.5q5 -24 12.5 -40.5t13 -22t9.5 -6.5q12 -2 26 20q14 24 18 56t-7 74t-39 80q-39 53 -54.5 105t-11 88.5t21.5 61.5q9 15 22 24.5
t27 12.5t28 0q7 -2 15 -6t18 -13.5t17.5 -27.5t10.5 -42q1 -11 -6 -20.5t-18 -10.5q-6 -1 -11.5 0.5t-9.5 5t-7 8.5t-3 10q-5 39 -19 42q-8 2 -18 -13q-4 -7 -7.5 -17t-5 -23.5t1 -30t8 -35t17.5 -41t29 -45.5zM154 575h-41l-61 92h43l38 -61h1l38 61h42z" />
    <glyph glyph-name="Ydieresis" unicode="&#x178;" horiz-adv-x="369" 
d="M315 665q9 -51 12 -134.5t-1 -177t-24.5 -180.5t-54.5 -130q-35 -43 -82 -43q-49 0 -81 35q-19 22 -30 55t-12.5 66.5t-1 51t1.5 30.5q2 11 11 18t20.5 6t18.5 -10t6 -21q-5 -36 0.5 -85t27.5 -74q15 -17 39 -17q20 0 38 23q36 45 53.5 152t17.5 230q-4 -7 -9 -13
q-37 -50 -92 -50q-47 0 -78 35q-20 22 -31.5 55.5t-14 70.5t-2 64t2.5 53q1 7 5.5 13t11 9t14.5 3q11 -2 18.5 -10.5t6.5 -20.5q-8 -52 -0.5 -113t30.5 -87q15 -16 37 -16q27 0 48 27q16 22 26.5 57.5t12.5 65t0 52.5q-1 6 -2 11q-3 11 3 20.5t17 12.5t20.5 -3t13.5 -16
q1 -7 3 -15zM242 752q-9 0 -16.5 4.5t-11 12t-3.5 16.5q0 13 9 22t22 9q9 0 16 -4t11 -11.5t4 -15.5q0 -14 -8.5 -23.5t-22.5 -9.5zM123 752q-9 0 -16 4.5t-11 12t-4 16.5q0 13 9 22t23 9q13 0 21.5 -9t8.5 -22q0 -7 -2.5 -13t-6 -10.5t-9.5 -7t-13 -2.5z" />
    <glyph glyph-name="zcaron" unicode="&#x17e;" horiz-adv-x="334" 
d="M293 347q5 -10 1.5 -21t-13.5 -16q-20 -10 -47 -14q-14 -34 -33 -73q-39 -80 -91 -171q89 -11 129 5q7 3 14 2t13 -5.5t9 -11.5q4 -11 -0.5 -21.5t-14.5 -14.5q-34 -14 -87 -14q-56 0 -113 12q-14 3 -19.5 16t1.5 26q54 90 107 197q12 27 23 51q-43 3 -82 14
q-11 3 -17 13.5t-2.5 21.5t13.5 16.5t21 2.5q44 -13 91 -13q17 44 23.5 74t5.5 36.5t-3 8.5q-33 36 -88 24q-17 -4 -28.5 -12t-12.5 -14q-4 -11 -14 -16.5t-21 -2.5t-16.5 13.5t-2.5 21.5q6 22 28.5 39t54.5 25q41 9 78.5 -1.5t63.5 -39.5q33 -36 -4 -144q9 3 18.5 -0.5
t14.5 -13.5zM182 575h-40l-62 92h44l37 -61h2l37 61h43z" />
    <glyph glyph-name="quoteleft" unicode="&#x2018;" horiz-adv-x="154" 
d="M79 643q11 -1 18 -11.5t7 -24.5q0 -15 -8 -26t-19 -11q-7 0 -13.5 5t-10 13.5t-3.5 18.5v6q1 7 3 18t10 30.5t19 22.5q-12 -16 -3 -41z" />
    <glyph glyph-name="quoteright" unicode="&#x2019;" horiz-adv-x="154" 
d="M104 648v-6q0 -7 -2 -18t-10.5 -30.5t-19.5 -23.5q13 17 3 42q-10 1 -17.5 11.5t-7.5 24.5q0 15 8 25.5t19 10.5q8 0 14 -4.5t9.5 -13t3.5 -18.5z" />
    <glyph glyph-name="quotedblleft" unicode="&#x201c;" horiz-adv-x="239" 
d="M79 643q11 -1 18 -11.5t7 -24.5q0 -15 -8 -26t-19 -11q-7 0 -13.5 5t-10 13.5t-3.5 18.5v6q1 7 3 18t10 30.5t19 22.5q-12 -16 -3 -41zM163 643q7 0 13 -5t9.5 -13.5t3.5 -17.5q0 -15 -8 -26t-19 -11q-6 0 -11 3t-8.5 8t-5.5 12t-2 14v6q0 7 2 18t10.5 30.5t19.5 22.5
q-13 -16 -4 -41z" />
    <glyph glyph-name="quotedblright" unicode="&#x201d;" horiz-adv-x="239" 
d="M189 648q0 -2 -1 -6h1q-1 -7 -3 -18t-10 -30.5t-19 -23.5q12 17 3 42q-11 1 -18 11.5t-7 24.5q0 15 7.5 25.5t19.5 10.5q5 0 10 -2.5t9 -7.5t6 -12t2 -14zM77 684q11 0 19 -10.5t8 -25.5v-6q0 -2 -0.5 -6.5t-3 -16t-6 -21t-9.5 -18t-13 -10.5q13 17 3 42q-5 0 -9.5 3
t-8 8t-5.5 11.5t-2 13.5q0 10 3.5 18.5t10 13t13.5 4.5z" />
    <glyph glyph-name="Euro" unicode="&#x20ac;" horiz-adv-x="334" 
d="M264 95q9 0 14.5 -5.5t5.5 -14t-5.5 -14.5t-14.5 -6q-76 0 -118 89q-33 70 -34 172h-46q-7 0 -11.5 4.5t-4.5 11t4.5 11.5t11.5 5h46q1 20 3 39h-36q-6 0 -11 4.5t-5 11t5 11.5t11 5h40q14 83 51 136t94 53q9 0 14.5 -6t5.5 -14q0 -4 -1.5 -7.5t-4 -6.5t-6.5 -4.5
t-8 -1.5q-38 0 -65 -41.5t-39 -107.5h52q6 0 11 -5t5 -11.5t-5 -11t-11 -4.5h-57q-2 -20 -3 -39h46q7 0 11.5 -5t4.5 -11.5t-4.5 -11t-11.5 -4.5h-46q1 -93 30 -155q31 -66 82 -66z" />
    <glyph glyph-name="trademark" unicode="&#x2122;" horiz-adv-x="410" 
d="M345 621q18 -15 14 -146q-1 -56 -6 -123q0 -6 -4 -9.5t-10 -3.5h-1q-4 0 -7 2t-4.5 5.5t-1.5 7.5q11 159 5 227q-3 -8 -9 -25q-18 -52 -30 -73q-4 -6 -11.5 -6.5t-11.5 4.5q-14 17 -29 70q-7 24 -12 35q-3 -40 -0.5 -120t8.5 -107q1 -3 -0.5 -7t-4 -6.5t-6.5 -3.5
q-5 -1 -10 2t-7 9q-8 34 -9 141q-2 115 11 129q6 7 14 6t14.5 -6.5t12 -17t8.5 -20.5t8 -26q8 -27 12 -38q6 14 16 44q8 22 11.5 31.5t10 18.5t14.5 10q9 2 15 -4zM176 629q6 0 10 -4.5t4 -10t-4 -9.5t-10 -4h-42q-3 -47 -3.5 -131.5t3.5 -107.5q6 -12 -6 -18q-3 -2 -6 -2
q-9 0 -13 8q-5 10 -6 62.5t0 103t3 85.5h-42q-6 0 -10 4t-4 9.5t4 10t10 4.5h112z" />
    <glyph glyph-name="minus" unicode="&#x2212;" horiz-adv-x="392" 
d="M314 368q12 0 20 -8t8 -19.5t-8 -20t-20 -8.5h-236q-12 0 -20 8.5t-8 20t8 19.5t20 8h236z" />
    </font>
</defs>
</svg>
